<svg width="16" height="16" viewBox="0 0 16 16" fill="none" xmlns="http://www.w3.org/2000/svg">
<path d="M7.16858 14.6667C7.16858 15.1269 7.54174 15.5 8.00191 15.5C8.46216 15.5 8.83525 15.1269 8.83525 14.6667V8.83325H14.6686C15.1288 8.83325 15.5019 8.46017 15.5019 7.99992C15.5019 7.53967 15.1288 7.16658 14.6686 7.16658H8.83525V1.33333C8.83525 0.8731 8.46216 0.5 8.00191 0.5C7.54174 0.5 7.16858 0.8731 7.16858 1.33333V7.16658H1.33529C0.875053 7.16658 0.501953 7.53967 0.501953 7.99992C0.501953 8.46017 0.875053 8.83325 1.33529 8.83325H7.16858V14.6667Z" fill="#BEBEBE"/>
</svg>
