<svg width="22" height="23" viewBox="0 0 22 23" fill="none" xmlns="http://www.w3.org/2000/svg">
<path fill-rule="evenodd" clip-rule="evenodd" d="M14.9197 16.2788C15.1735 16.5496 15.312 16.9086 15.3059 17.2797C15.2999 17.6509 15.1497 18.0051 14.8873 18.2676C14.6248 18.53 14.2706 18.6802 13.8994 18.6862C13.5283 18.6923 13.1693 18.5538 12.8985 18.3L7.10971 12.5099C6.84186 12.2417 6.69141 11.8783 6.69141 11.4993C6.69141 11.1203 6.84186 10.7568 7.10971 10.4886L12.8985 4.69988C13.1693 4.44611 13.5283 4.30761 13.8994 4.31367C14.2706 4.31972 14.6248 4.46985 14.8873 4.73231C15.1497 4.99478 15.2999 5.34902 15.3059 5.72016C15.312 6.0913 15.1735 6.45024 14.9197 6.72113L10.1416 11.4993L14.9197 16.2788Z" fill="#333333"/>
</svg>
