<svg width="10" height="18" viewBox="0 0 10 18" fill="none" xmlns="http://www.w3.org/2000/svg">
<path d="M0.338118 17.2638C0.444555 17.3705 0.570999 17.4552 0.710207 17.513C0.849415 17.5707 0.998652 17.6005 1.14937 17.6005C1.30009 17.6005 1.44932 17.5707 1.58853 17.513C1.72774 17.4552 1.85418 17.3705 1.96062 17.2638L9.57812 9.64633C9.6631 9.56153 9.73051 9.4608 9.77651 9.34991C9.82251 9.23901 9.84619 9.12014 9.84619 9.00008C9.84619 8.88003 9.82251 8.76115 9.77651 8.65026C9.73051 8.53937 9.6631 8.43864 9.57812 8.35383L1.96062 0.736332C1.51145 0.287165 0.787284 0.287165 0.338118 0.736332C-0.11105 1.1855 -0.11105 1.90967 0.338118 2.35883L6.97478 9.00467L0.328952 15.6505C-0.111048 16.0905 -0.11105 16.8238 0.338118 17.2638Z" fill="#D9D9D9"/>
</svg>
