<svg width="15" height="15" viewBox="0 0 15 15" fill="none" xmlns="http://www.w3.org/2000/svg">
<path opacity="0.4" d="M4.93042 8.21543L2.70648 8.41211C2.20739 8.41211 1.80273 8.00352 1.80273 7.49956C1.80273 6.99561 2.20739 6.58702 2.70648 6.58702L4.93042 6.7837C5.32195 6.7837 5.63938 7.10421 5.63938 7.49956C5.63938 7.89557 5.32195 8.21543 4.93042 8.21543Z" fill="#454545"/>
<path d="M12.3991 8.17923C12.3644 8.21433 12.2345 8.36267 12.1125 8.48584C11.401 9.25734 9.54298 10.5189 8.57103 10.905C8.42347 10.9665 8.0503 11.0977 7.85027 11.1069C7.65942 11.1069 7.4771 11.0626 7.3033 10.9752C7.08622 10.8526 6.91308 10.6593 6.81732 10.4315C6.75633 10.2739 6.66058 9.80036 6.66058 9.79175C6.56548 9.27456 6.51367 8.43353 6.51367 7.50376C6.51367 6.61903 6.56548 5.81244 6.64353 5.28663C6.65205 5.27736 6.74781 4.68997 6.85208 4.48865C7.04293 4.12045 7.4161 3.89265 7.81551 3.89265H7.85027C8.11063 3.90126 8.6576 4.12972 8.6576 4.13767C9.57774 4.52375 11.3918 5.72436 12.1211 6.52235C12.1211 6.52235 12.327 6.72764 12.4162 6.85544C12.5552 7.03954 12.6248 7.26735 12.6248 7.49516C12.6248 7.74945 12.5467 7.98586 12.3991 8.17923Z" fill="#454545"/>
</svg>
