<svg width="25" height="21" viewBox="0 0 25 21" fill="none" xmlns="http://www.w3.org/2000/svg">
<path d="M12.3174 15.2875H4.31738C3.78695 15.2875 3.27824 15.1122 2.90317 14.8003C2.5281 14.4883 2.31738 14.0653 2.31738 13.6241V6.9708C2.31738 6.52965 2.5281 6.10658 2.90317 5.79464C3.27824 5.48271 3.78695 5.30746 4.31738 5.30746H20.3174C20.8478 5.30746 21.3565 5.48271 21.7316 5.79464C22.1067 6.10658 22.3174 6.52965 22.3174 6.9708V11.1291" stroke="#BF80BF" stroke-width="2" stroke-linecap="round" stroke-linejoin="round"/>
<path d="M18.3174 10.2975H18.3274" stroke="#BF80BF" stroke-width="2" stroke-linecap="round" stroke-linejoin="round"/>
<path d="M19.3174 18.6141V13.6241" stroke="#BF80BF" stroke-width="2" stroke-linecap="round" stroke-linejoin="round"/>
<path d="M22.3174 16.1191L19.3174 13.6241L16.3174 16.1191" stroke="#BF80BF" stroke-width="2" stroke-linecap="round" stroke-linejoin="round"/>
<path d="M6.31738 10.2975H6.32738" stroke="#BF80BF" stroke-width="2" stroke-linecap="round" stroke-linejoin="round"/>
<path d="M12.3174 11.9608C13.422 11.9608 14.3174 11.2161 14.3174 10.2975C14.3174 9.37882 13.422 8.63412 12.3174 8.63412C11.2128 8.63412 10.3174 9.37882 10.3174 10.2975C10.3174 11.2161 11.2128 11.9608 12.3174 11.9608Z" stroke="#BF80BF" stroke-width="2" stroke-linecap="round" stroke-linejoin="round"/>
</svg>
