<svg width="21" height="21" viewBox="0 0 21 21" fill="none" xmlns="http://www.w3.org/2000/svg">
<g clip-path="url(#clip0_478_4975)">
<path d="M6.31333 12.7925L2.52925 6.25556C2.36608 5.97352 2.28934 5.64976 2.30856 5.32449C2.32778 4.99922 2.44212 4.68675 2.63737 4.42589L3.97635 2.64613C4.13129 2.43955 4.33219 2.27188 4.56315 2.1564C4.79412 2.04091 5.04879 1.98079 5.30702 1.98079H15.287C15.5452 1.98079 15.7999 2.04091 16.0309 2.1564C16.2618 2.27188 16.4628 2.43955 16.6177 2.64613L17.9484 4.42589C18.1449 4.68591 18.2607 4.99795 18.2814 5.32324C18.3021 5.64852 18.2268 5.97272 18.0648 6.25556L14.2807 12.7925" stroke="#F6C02A" stroke-width="2" stroke-linecap="round" stroke-linejoin="round"/>
<path d="M9.46539 10.2975L4.5752 2.14713" stroke="#F6C02A" stroke-width="2" stroke-linecap="round" stroke-linejoin="round"/>
<path d="M11.1289 10.2975L16.0191 2.14713" stroke="#F6C02A" stroke-width="2" stroke-linecap="round" stroke-linejoin="round"/>
<path d="M6.9707 6.13913H13.624" stroke="#F6C02A" stroke-width="2" stroke-linecap="round" stroke-linejoin="round"/>
<path d="M10.297 18.6141C12.5936 18.6141 14.4553 16.7524 14.4553 14.4558C14.4553 12.1592 12.5936 10.2975 10.297 10.2975C8.00042 10.2975 6.13867 12.1592 6.13867 14.4558C6.13867 16.7524 8.00042 18.6141 10.297 18.6141Z" stroke="#F6C02A" stroke-width="2" stroke-linecap="round" stroke-linejoin="round"/>
<path d="M10.2977 15.2875V13.6241H9.88184" stroke="#F6C02A" stroke-width="2" stroke-linecap="round" stroke-linejoin="round"/>
</g>
<defs>
<clipPath id="clip0_478_4975">
<rect width="19.96" height="19.96" fill="white" transform="translate(0.317383 0.317459)"/>
</clipPath>
</defs>
</svg>
