<svg width="126" height="125" viewBox="0 0 126 125" fill="none" xmlns="http://www.w3.org/2000/svg">
<path d="M62.9989 125C28.5366 125 0.5 96.9603 0.5 62.4964C0.5 45.8003 7.00329 30.1062 18.8118 18.304C30.606 6.50072 46.2989 0 63 0C79.701 0 95.394 6.50072 107.189 18.305C118.997 30.1052 125.5 45.7993 125.5 62.4954C125.5 79.1967 118.997 94.8938 107.188 106.696C95.3929 118.499 79.699 125 62.9989 125ZM62.9989 5.10742C47.6625 5.10742 33.2525 11.077 22.4225 21.9159C11.5782 32.7539 5.60601 47.165 5.60601 62.4964C5.60601 94.1451 31.3516 119.893 62.9979 119.893C78.3344 119.893 92.7444 113.923 103.574 103.084C114.419 92.2461 120.391 77.832 120.391 62.4954C120.391 47.164 114.419 32.7529 103.575 21.9159C92.7454 11.077 78.3354 5.10742 62.9989 5.10742Z" fill="#0D60D8"/>
<path d="M98.026 27.4493L54.2055 98.3975C53.322 99.8286 51.2659 99.897 50.2884 98.5292L28.0125 67.3464C27.2107 66.2238 28.5089 64.8029 29.6989 65.5006L50.7951 77.8728L95.974 25.9375C97.0056 24.7536 98.8513 26.1132 98.026 27.4493Z" fill="#0D60D8"/>
</svg>
