<svg width="205" height="272" viewBox="0 0 205 272" fill="none" xmlns="http://www.w3.org/2000/svg">
<rect x="101" width="104" height="168" rx="4" fill="#FFF5DA"/>
<rect x="52" y="53" width="104" height="168" rx="4" fill="#F4E6FF"/>
<rect y="104" width="104" height="168" rx="4" fill="#40D287"/>
<path d="M138.497 12V7.1H140.086C140.66 7.1 141.131 7.20033 141.5 7.401C141.873 7.60167 142.149 7.88633 142.326 8.255C142.508 8.619 142.599 9.053 142.599 9.557C142.599 10.0563 142.508 10.4903 142.326 10.859C142.149 11.223 141.873 11.5053 141.5 11.706C141.131 11.902 140.66 12 140.086 12H138.497ZM139.239 11.37H140.058C140.501 11.37 140.851 11.2977 141.108 11.153C141.369 11.0083 141.556 10.8007 141.668 10.53C141.785 10.2593 141.843 9.935 141.843 9.557C141.843 9.179 141.785 8.85233 141.668 8.577C141.556 8.30167 141.369 8.09167 141.108 7.947C140.851 7.79767 140.501 7.723 140.058 7.723H139.239V11.37ZM145.015 12.084C144.684 12.084 144.385 12.0093 144.119 11.86C143.858 11.706 143.65 11.4937 143.496 11.223C143.342 10.9477 143.265 10.628 143.265 10.264C143.265 9.9 143.342 9.58267 143.496 9.312C143.655 9.03667 143.867 8.82433 144.133 8.675C144.399 8.521 144.695 8.444 145.022 8.444C145.353 8.444 145.65 8.521 145.911 8.675C146.177 8.82433 146.387 9.03667 146.541 9.312C146.7 9.58267 146.779 9.9 146.779 10.264C146.779 10.628 146.7 10.9477 146.541 11.223C146.387 11.4937 146.177 11.706 145.911 11.86C145.645 12.0093 145.346 12.084 145.015 12.084ZM145.015 11.447C145.192 11.447 145.356 11.4027 145.505 11.314C145.659 11.2253 145.783 11.0947 145.876 10.922C145.969 10.7447 146.016 10.5253 146.016 10.264C146.016 10.0027 145.969 9.78567 145.876 9.613C145.787 9.43567 145.666 9.30267 145.512 9.214C145.363 9.12533 145.199 9.081 145.022 9.081C144.845 9.081 144.679 9.12533 144.525 9.214C144.376 9.30267 144.254 9.43567 144.161 9.613C144.068 9.78567 144.021 10.0027 144.021 10.264C144.021 10.5253 144.068 10.7447 144.161 10.922C144.254 11.0947 144.376 11.2253 144.525 11.314C144.674 11.4027 144.838 11.447 145.015 11.447ZM147.581 12V6.96H148.323V12H147.581ZM149.263 12V6.96H150.005V12H149.263ZM152.121 12.084C151.827 12.084 151.584 12.035 151.393 11.937C151.201 11.839 151.059 11.7107 150.966 11.552C150.872 11.3887 150.826 11.2113 150.826 11.02C150.826 10.684 150.956 10.418 151.218 10.222C151.479 10.026 151.852 9.928 152.338 9.928H153.248V9.865C153.248 9.59433 153.173 9.39133 153.024 9.256C152.879 9.12067 152.69 9.053 152.457 9.053C152.251 9.053 152.072 9.10433 151.918 9.207C151.768 9.305 151.677 9.452 151.645 9.648H150.903C150.926 9.396 151.01 9.18133 151.155 9.004C151.304 8.822 151.491 8.68433 151.715 8.591C151.943 8.493 152.193 8.444 152.464 8.444C152.949 8.444 153.325 8.57233 153.591 8.829C153.857 9.081 153.99 9.42633 153.99 9.865V12H153.346L153.283 11.405C153.185 11.5963 153.042 11.7573 152.856 11.888C152.669 12.0187 152.424 12.084 152.121 12.084ZM152.268 11.482C152.468 11.482 152.636 11.4353 152.772 11.342C152.912 11.244 153.019 11.1157 153.094 10.957C153.173 10.7983 153.222 10.6233 153.241 10.432H152.415C152.121 10.432 151.911 10.4833 151.785 10.586C151.663 10.6887 151.603 10.817 151.603 10.971C151.603 11.1297 151.661 11.2557 151.778 11.349C151.899 11.4377 152.062 11.482 152.268 11.482ZM154.855 12V8.528H155.52L155.583 9.186C155.704 8.95733 155.872 8.77767 156.087 8.647C156.306 8.51167 156.57 8.444 156.878 8.444V9.221H156.675C156.469 9.221 156.285 9.256 156.122 9.326C155.963 9.39133 155.835 9.50567 155.737 9.669C155.643 9.82767 155.597 10.0493 155.597 10.334V12H154.855ZM160.755 12L158.942 7.1H159.733L161.203 11.23L162.68 7.1H163.464L161.651 12H160.755ZM164.483 7.87C164.343 7.87 164.226 7.828 164.133 7.744C164.044 7.65533 164 7.54567 164 7.415C164 7.28433 164.044 7.177 164.133 7.093C164.226 7.00433 164.343 6.96 164.483 6.96C164.623 6.96 164.737 7.00433 164.826 7.093C164.919 7.177 164.966 7.28433 164.966 7.415C164.966 7.54567 164.919 7.65533 164.826 7.744C164.737 7.828 164.623 7.87 164.483 7.87ZM164.112 12V8.528H164.854V12H164.112ZM165.833 12V8.528H166.498L166.561 9.186C166.683 8.95733 166.851 8.77767 167.065 8.647C167.285 8.51167 167.548 8.444 167.856 8.444V9.221H167.653C167.448 9.221 167.264 9.256 167.1 9.326C166.942 9.39133 166.813 9.50567 166.715 9.669C166.622 9.82767 166.575 10.0493 166.575 10.334V12H165.833ZM169.948 12C169.608 12 169.337 11.9183 169.136 11.755C168.936 11.587 168.835 11.2907 168.835 10.866V9.151H168.24V8.528H168.835L168.926 7.646H169.577V8.528H170.557V9.151H169.577V10.866C169.577 11.0573 169.617 11.1903 169.696 11.265C169.78 11.335 169.923 11.37 170.123 11.37H170.522V12H169.948ZM172.604 12.084C172.184 12.084 171.852 11.9533 171.61 11.692C171.372 11.4307 171.253 11.041 171.253 10.523V8.528H171.995V10.446C171.995 11.118 172.27 11.454 172.821 11.454C173.096 11.454 173.322 11.356 173.5 11.16C173.677 10.964 173.766 10.684 173.766 10.32V8.528H174.508V12H173.85L173.794 11.391C173.686 11.6057 173.528 11.776 173.318 11.902C173.112 12.0233 172.874 12.084 172.604 12.084ZM176.627 12.084C176.333 12.084 176.091 12.035 175.899 11.937C175.708 11.839 175.566 11.7107 175.472 11.552C175.379 11.3887 175.332 11.2113 175.332 11.02C175.332 10.684 175.463 10.418 175.724 10.222C175.986 10.026 176.359 9.928 176.844 9.928H177.754V9.865C177.754 9.59433 177.68 9.39133 177.53 9.256C177.386 9.12067 177.197 9.053 176.963 9.053C176.758 9.053 176.578 9.10433 176.424 9.207C176.275 9.305 176.184 9.452 176.151 9.648H175.409C175.433 9.396 175.517 9.18133 175.661 9.004C175.811 8.822 175.997 8.68433 176.221 8.591C176.45 8.493 176.7 8.444 176.97 8.444C177.456 8.444 177.831 8.57233 178.097 8.829C178.363 9.081 178.496 9.42633 178.496 9.865V12H177.852L177.789 11.405C177.691 11.5963 177.549 11.7573 177.362 11.888C177.176 12.0187 176.931 12.084 176.627 12.084ZM176.774 11.482C176.975 11.482 177.143 11.4353 177.278 11.342C177.418 11.244 177.526 11.1157 177.6 10.957C177.68 10.7983 177.729 10.6233 177.747 10.432H176.921C176.627 10.432 176.417 10.4833 176.291 10.586C176.17 10.6887 176.109 10.817 176.109 10.971C176.109 11.1297 176.168 11.2557 176.284 11.349C176.406 11.4377 176.569 11.482 176.774 11.482ZM179.362 12V6.96H180.104V12H179.362ZM185.019 12.084C184.534 12.084 184.114 11.979 183.759 11.769C183.409 11.5543 183.138 11.258 182.947 10.88C182.756 10.4973 182.66 10.0563 182.66 9.557C182.66 9.053 182.756 8.612 182.947 8.234C183.138 7.85133 183.409 7.55267 183.759 7.338C184.114 7.12333 184.534 7.016 185.019 7.016C185.593 7.016 186.062 7.156 186.426 7.436C186.79 7.716 187.021 8.108 187.119 8.612H186.293C186.228 8.32733 186.088 8.101 185.873 7.933C185.658 7.765 185.371 7.681 185.012 7.681C184.522 7.681 184.135 7.849 183.85 8.185C183.565 8.51633 183.423 8.97367 183.423 9.557C183.423 10.1357 183.565 10.5907 183.85 10.922C184.135 11.2533 184.522 11.419 185.012 11.419C185.371 11.419 185.658 11.3397 185.873 11.181C186.088 11.0223 186.228 10.8053 186.293 10.53H187.119C187.021 11.0153 186.79 11.3957 186.426 11.671C186.062 11.9463 185.593 12.084 185.019 12.084ZM189.083 12.084C188.789 12.084 188.546 12.035 188.355 11.937C188.163 11.839 188.021 11.7107 187.928 11.552C187.834 11.3887 187.788 11.2113 187.788 11.02C187.788 10.684 187.918 10.418 188.18 10.222C188.441 10.026 188.814 9.928 189.3 9.928H190.21V9.865C190.21 9.59433 190.135 9.39133 189.986 9.256C189.841 9.12067 189.652 9.053 189.419 9.053C189.213 9.053 189.034 9.10433 188.88 9.207C188.73 9.305 188.639 9.452 188.607 9.648H187.865C187.888 9.396 187.972 9.18133 188.117 9.004C188.266 8.822 188.453 8.68433 188.677 8.591C188.905 8.493 189.155 8.444 189.426 8.444C189.911 8.444 190.287 8.57233 190.553 8.829C190.819 9.081 190.952 9.42633 190.952 9.865V12H190.308L190.245 11.405C190.147 11.5963 190.004 11.7573 189.818 11.888C189.631 12.0187 189.386 12.084 189.083 12.084ZM189.23 11.482C189.43 11.482 189.598 11.4353 189.734 11.342C189.874 11.244 189.981 11.1157 190.056 10.957C190.135 10.7983 190.184 10.6233 190.203 10.432H189.377C189.083 10.432 188.873 10.4833 188.747 10.586C188.625 10.6887 188.565 10.817 188.565 10.971C188.565 11.1297 188.623 11.2557 188.74 11.349C188.861 11.4377 189.024 11.482 189.23 11.482ZM191.817 12V8.528H192.482L192.545 9.186C192.666 8.95733 192.834 8.77767 193.049 8.647C193.268 8.51167 193.532 8.444 193.84 8.444V9.221H193.637C193.431 9.221 193.247 9.256 193.084 9.326C192.925 9.39133 192.797 9.50567 192.699 9.669C192.605 9.82767 192.559 10.0493 192.559 10.334V12H191.817ZM195.962 12.084C195.626 12.084 195.33 12.0047 195.073 11.846C194.816 11.6873 194.616 11.4703 194.471 11.195C194.326 10.9197 194.254 10.607 194.254 10.257C194.254 9.907 194.326 9.59667 194.471 9.326C194.616 9.05067 194.816 8.836 195.073 8.682C195.334 8.52333 195.633 8.444 195.969 8.444C196.244 8.444 196.485 8.49767 196.69 8.605C196.9 8.71233 197.063 8.864 197.18 9.06V6.96H197.922V12H197.257L197.18 11.461C197.068 11.6243 196.914 11.769 196.718 11.895C196.522 12.021 196.27 12.084 195.962 12.084ZM196.095 11.44C196.412 11.44 196.671 11.3303 196.872 11.111C197.077 10.8917 197.18 10.6093 197.18 10.264C197.18 9.914 197.077 9.63167 196.872 9.417C196.671 9.19767 196.412 9.088 196.095 9.088C195.778 9.088 195.516 9.19767 195.311 9.417C195.106 9.63167 195.003 9.914 195.003 10.264C195.003 10.4927 195.05 10.6957 195.143 10.873C195.236 11.0503 195.365 11.1903 195.528 11.293C195.696 11.391 195.885 11.44 196.095 11.44Z" fill="#42276C"/>
<path d="M90.497 65V60.1H91.239L93.696 63.789V60.1H94.438V65H93.696L91.239 61.311V65H90.497ZM96.5805 65.084C96.2865 65.084 96.0439 65.035 95.8525 64.937C95.6612 64.839 95.5189 64.7107 95.4255 64.552C95.3322 64.3887 95.2855 64.2113 95.2855 64.02C95.2855 63.684 95.4162 63.418 95.6775 63.222C95.9389 63.026 96.3122 62.928 96.7975 62.928H97.7075V62.865C97.7075 62.5943 97.6329 62.3913 97.4835 62.256C97.3389 62.1207 97.1499 62.053 96.9165 62.053C96.7112 62.053 96.5315 62.1043 96.3775 62.207C96.2282 62.305 96.1372 62.452 96.1045 62.648H95.3625C95.3859 62.396 95.4699 62.1813 95.6145 62.004C95.7639 61.822 95.9505 61.6843 96.1745 61.591C96.4032 61.493 96.6529 61.444 96.9235 61.444C97.4089 61.444 97.7845 61.5723 98.0505 61.829C98.3165 62.081 98.4495 62.4263 98.4495 62.865V65H97.8055L97.7425 64.405C97.6445 64.5963 97.5022 64.7573 97.3155 64.888C97.1289 65.0187 96.8839 65.084 96.5805 65.084ZM96.7275 64.482C96.9282 64.482 97.0962 64.4353 97.2315 64.342C97.3715 64.244 97.4789 64.1157 97.5535 63.957C97.6329 63.7983 97.6819 63.6233 97.7005 63.432H96.8745C96.5805 63.432 96.3705 63.4833 96.2445 63.586C96.1232 63.6887 96.0625 63.817 96.0625 63.971C96.0625 64.1297 96.1209 64.2557 96.2375 64.349C96.3589 64.4377 96.5222 64.482 96.7275 64.482ZM99.7347 60.87C99.5947 60.87 99.478 60.828 99.3847 60.744C99.296 60.6553 99.2517 60.5457 99.2517 60.415C99.2517 60.2843 99.296 60.177 99.3847 60.093C99.478 60.0043 99.5947 59.96 99.7347 59.96C99.8747 59.96 99.989 60.0043 100.078 60.093C100.171 60.177 100.218 60.2843 100.218 60.415C100.218 60.5457 100.171 60.6553 100.078 60.744C99.989 60.828 99.8747 60.87 99.7347 60.87ZM99.3637 65V61.528H100.106V65H99.3637ZM101.085 65V61.528H101.75L101.813 62.186C101.935 61.9573 102.103 61.7777 102.317 61.647C102.537 61.5117 102.8 61.444 103.108 61.444V62.221H102.905C102.7 62.221 102.516 62.256 102.352 62.326C102.194 62.3913 102.065 62.5057 101.967 62.669C101.874 62.8277 101.827 63.0493 101.827 63.334V65H101.085ZM104.92 65.084C104.626 65.084 104.384 65.035 104.192 64.937C104.001 64.839 103.859 64.7107 103.765 64.552C103.672 64.3887 103.625 64.2113 103.625 64.02C103.625 63.684 103.756 63.418 104.017 63.222C104.279 63.026 104.652 62.928 105.137 62.928H106.047V62.865C106.047 62.5943 105.973 62.3913 105.823 62.256C105.679 62.1207 105.49 62.053 105.256 62.053C105.051 62.053 104.871 62.1043 104.717 62.207C104.568 62.305 104.477 62.452 104.444 62.648H103.702C103.726 62.396 103.81 62.1813 103.954 62.004C104.104 61.822 104.29 61.6843 104.514 61.591C104.743 61.493 104.993 61.444 105.263 61.444C105.749 61.444 106.124 61.5723 106.39 61.829C106.656 62.081 106.789 62.4263 106.789 62.865V65H106.145L106.082 64.405C105.984 64.5963 105.842 64.7573 105.655 64.888C105.469 65.0187 105.224 65.084 104.92 65.084ZM105.067 64.482C105.268 64.482 105.436 64.4353 105.571 64.342C105.711 64.244 105.819 64.1157 105.893 63.957C105.973 63.7983 106.022 63.6233 106.04 63.432H105.214C104.92 63.432 104.71 63.4833 104.584 63.586C104.463 63.6887 104.402 63.817 104.402 63.971C104.402 64.1297 104.461 64.2557 104.577 64.349C104.699 64.4377 104.862 64.482 105.067 64.482ZM110.895 65L109.082 60.1H109.873L111.343 64.23L112.82 60.1H113.604L111.791 65H110.895ZM114.623 60.87C114.483 60.87 114.367 60.828 114.273 60.744C114.185 60.6553 114.14 60.5457 114.14 60.415C114.14 60.2843 114.185 60.177 114.273 60.093C114.367 60.0043 114.483 59.96 114.623 59.96C114.763 59.96 114.878 60.0043 114.966 60.093C115.06 60.177 115.106 60.2843 115.106 60.415C115.106 60.5457 115.06 60.6553 114.966 60.744C114.878 60.828 114.763 60.87 114.623 60.87ZM114.252 65V61.528H114.994V65H114.252ZM115.974 65V61.528H116.639L116.702 62.186C116.823 61.9573 116.991 61.7777 117.206 61.647C117.425 61.5117 117.689 61.444 117.997 61.444V62.221H117.794C117.589 62.221 117.404 62.256 117.241 62.326C117.082 62.3913 116.954 62.5057 116.856 62.669C116.763 62.8277 116.716 63.0493 116.716 63.334V65H115.974ZM120.089 65C119.748 65 119.478 64.9183 119.277 64.755C119.076 64.587 118.976 64.2907 118.976 63.866V62.151H118.381V61.528H118.976L119.067 60.646H119.718V61.528H120.698V62.151H119.718V63.866C119.718 64.0573 119.758 64.1903 119.837 64.265C119.921 64.335 120.063 64.37 120.264 64.37H120.663V65H120.089ZM122.744 65.084C122.324 65.084 121.993 64.9533 121.75 64.692C121.512 64.4307 121.393 64.041 121.393 63.523V61.528H122.135V63.446C122.135 64.118 122.41 64.454 122.961 64.454C123.236 64.454 123.463 64.356 123.64 64.16C123.817 63.964 123.906 63.684 123.906 63.32V61.528H124.648V65H123.99L123.934 64.391C123.827 64.6057 123.668 64.776 123.458 64.902C123.253 65.0233 123.015 65.084 122.744 65.084ZM126.768 65.084C126.474 65.084 126.231 65.035 126.04 64.937C125.849 64.839 125.706 64.7107 125.613 64.552C125.52 64.3887 125.473 64.2113 125.473 64.02C125.473 63.684 125.604 63.418 125.865 63.222C126.126 63.026 126.5 62.928 126.985 62.928H127.895V62.865C127.895 62.5943 127.82 62.3913 127.671 62.256C127.526 62.1207 127.337 62.053 127.104 62.053C126.899 62.053 126.719 62.1043 126.565 62.207C126.416 62.305 126.325 62.452 126.292 62.648H125.55C125.573 62.396 125.657 62.1813 125.802 62.004C125.951 61.822 126.138 61.6843 126.362 61.591C126.591 61.493 126.84 61.444 127.111 61.444C127.596 61.444 127.972 61.5723 128.238 61.829C128.504 62.081 128.637 62.4263 128.637 62.865V65H127.993L127.93 64.405C127.832 64.5963 127.69 64.7573 127.503 64.888C127.316 65.0187 127.071 65.084 126.768 65.084ZM126.915 64.482C127.116 64.482 127.284 64.4353 127.419 64.342C127.559 64.244 127.666 64.1157 127.741 63.957C127.82 63.7983 127.869 63.6233 127.888 63.432H127.062C126.768 63.432 126.558 63.4833 126.432 63.586C126.311 63.6887 126.25 63.817 126.25 63.971C126.25 64.1297 126.308 64.2557 126.425 64.349C126.546 64.4377 126.71 64.482 126.915 64.482ZM129.502 65V59.96H130.244V65H129.502ZM135.16 65.084C134.674 65.084 134.254 64.979 133.9 64.769C133.55 64.5543 133.279 64.258 133.088 63.88C132.896 63.4973 132.801 63.0563 132.801 62.557C132.801 62.053 132.896 61.612 133.088 61.234C133.279 60.8513 133.55 60.5527 133.9 60.338C134.254 60.1233 134.674 60.016 135.16 60.016C135.734 60.016 136.203 60.156 136.567 60.436C136.931 60.716 137.162 61.108 137.26 61.612H136.434C136.368 61.3273 136.228 61.101 136.014 60.933C135.799 60.765 135.512 60.681 135.153 60.681C134.663 60.681 134.275 60.849 133.991 61.185C133.706 61.5163 133.564 61.9737 133.564 62.557C133.564 63.1357 133.706 63.5907 133.991 63.922C134.275 64.2533 134.663 64.419 135.153 64.419C135.512 64.419 135.799 64.3397 136.014 64.181C136.228 64.0223 136.368 63.8053 136.434 63.53H137.26C137.162 64.0153 136.931 64.3957 136.567 64.671C136.203 64.9463 135.734 65.084 135.16 65.084ZM139.223 65.084C138.929 65.084 138.686 65.035 138.495 64.937C138.304 64.839 138.161 64.7107 138.068 64.552C137.975 64.3887 137.928 64.2113 137.928 64.02C137.928 63.684 138.059 63.418 138.32 63.222C138.581 63.026 138.955 62.928 139.44 62.928H140.35V62.865C140.35 62.5943 140.275 62.3913 140.126 62.256C139.981 62.1207 139.792 62.053 139.559 62.053C139.354 62.053 139.174 62.1043 139.02 62.207C138.871 62.305 138.78 62.452 138.747 62.648H138.005C138.028 62.396 138.112 62.1813 138.257 62.004C138.406 61.822 138.593 61.6843 138.817 61.591C139.046 61.493 139.295 61.444 139.566 61.444C140.051 61.444 140.427 61.5723 140.693 61.829C140.959 62.081 141.092 62.4263 141.092 62.865V65H140.448L140.385 64.405C140.287 64.5963 140.145 64.7573 139.958 64.888C139.771 65.0187 139.526 65.084 139.223 65.084ZM139.37 64.482C139.571 64.482 139.739 64.4353 139.874 64.342C140.014 64.244 140.121 64.1157 140.196 63.957C140.275 63.7983 140.324 63.6233 140.343 63.432H139.517C139.223 63.432 139.013 63.4833 138.887 63.586C138.766 63.6887 138.705 63.817 138.705 63.971C138.705 64.1297 138.763 64.2557 138.88 64.349C139.001 64.4377 139.165 64.482 139.37 64.482ZM141.957 65V61.528H142.622L142.685 62.186C142.807 61.9573 142.975 61.7777 143.189 61.647C143.409 61.5117 143.672 61.444 143.98 61.444V62.221H143.777C143.572 62.221 143.388 62.256 143.224 62.326C143.066 62.3913 142.937 62.5057 142.839 62.669C142.746 62.8277 142.699 63.0493 142.699 63.334V65H141.957ZM146.103 65.084C145.767 65.084 145.47 65.0047 145.214 64.846C144.957 64.6873 144.756 64.4703 144.612 64.195C144.467 63.9197 144.395 63.607 144.395 63.257C144.395 62.907 144.467 62.5967 144.612 62.326C144.756 62.0507 144.957 61.836 145.214 61.682C145.475 61.5233 145.774 61.444 146.11 61.444C146.385 61.444 146.625 61.4977 146.831 61.605C147.041 61.7123 147.204 61.864 147.321 62.06V59.96H148.063V65H147.398L147.321 64.461C147.209 64.6243 147.055 64.769 146.859 64.895C146.663 65.021 146.411 65.084 146.103 65.084ZM146.236 64.44C146.553 64.44 146.812 64.3303 147.013 64.111C147.218 63.8917 147.321 63.6093 147.321 63.264C147.321 62.914 147.218 62.6317 147.013 62.417C146.812 62.1977 146.553 62.088 146.236 62.088C145.918 62.088 145.657 62.1977 145.452 62.417C145.246 62.6317 145.144 62.914 145.144 63.264C145.144 63.4927 145.19 63.6957 145.284 63.873C145.377 64.0503 145.505 64.1903 145.669 64.293C145.837 64.391 146.026 64.44 146.236 64.44Z" fill="#42276C"/>
<path d="M24 196.288C22.416 196.288 21.032 195.928 19.848 195.208C18.664 194.488 17.744 193.48 17.088 192.184C16.432 190.888 16.104 189.376 16.104 187.648C16.104 185.936 16.44 184.424 17.112 183.112C17.784 181.8 18.736 180.776 19.968 180.04C21.2 179.288 22.664 178.912 24.36 178.912C26.28 178.912 27.872 179.376 29.136 180.304C30.416 181.216 31.24 182.488 31.608 184.12H28.872C28.648 183.192 28.144 182.464 27.36 181.936C26.592 181.392 25.592 181.12 24.36 181.12C23.176 181.12 22.144 181.384 21.264 181.912C20.4 182.44 19.728 183.192 19.248 184.168C18.784 185.144 18.552 186.304 18.552 187.648C18.552 189.008 18.784 190.176 19.248 191.152C19.728 192.128 20.384 192.872 21.216 193.384C22.064 193.896 23.04 194.152 24.144 194.152C25.84 194.152 27.12 193.664 27.984 192.688C28.848 191.712 29.344 190.408 29.472 188.776H24.864V186.928H31.92V196H29.712L29.52 193.432C29.136 194.056 28.688 194.584 28.176 195.016C27.68 195.432 27.088 195.752 26.4 195.976C25.728 196.184 24.928 196.288 24 196.288ZM41.5367 196.288C40.8967 196.288 40.3127 196.2 39.7847 196.024C39.2567 195.848 38.7847 195.608 38.3687 195.304C37.9527 194.984 37.6087 194.6 37.3367 194.152L37.0967 196H34.9367V178.72H37.3367V185.968C37.7207 185.408 38.2487 184.912 38.9207 184.48C39.6087 184.032 40.4887 183.808 41.5607 183.808C42.7287 183.808 43.7447 184.08 44.6087 184.624C45.4887 185.168 46.1767 185.912 46.6727 186.856C47.1687 187.8 47.4167 188.872 47.4167 190.072C47.4167 191.272 47.1687 192.344 46.6727 193.288C46.1767 194.216 45.4887 194.952 44.6087 195.496C43.7287 196.024 42.7047 196.288 41.5367 196.288ZM41.1527 194.2C41.9047 194.2 42.5687 194.024 43.1447 193.672C43.7207 193.32 44.1687 192.84 44.4887 192.232C44.8247 191.608 44.9927 190.88 44.9927 190.048C44.9927 189.232 44.8247 188.512 44.4887 187.888C44.1687 187.264 43.7207 186.776 43.1447 186.424C42.5687 186.072 41.9047 185.896 41.1527 185.896C40.4167 185.896 39.7527 186.072 39.1607 186.424C38.5847 186.776 38.1367 187.264 37.8167 187.888C37.4967 188.512 37.3367 189.232 37.3367 190.048C37.3367 190.864 37.4967 191.584 37.8167 192.208C38.1367 192.832 38.5847 193.32 39.1607 193.672C39.7527 194.024 40.4167 194.2 41.1527 194.2ZM55.7139 196.288C54.5459 196.288 53.5139 196.032 52.6179 195.52C51.7219 194.992 51.0179 194.264 50.5059 193.336C49.9939 192.408 49.7379 191.32 49.7379 190.072C49.7379 188.824 49.9859 187.736 50.4819 186.808C50.9939 185.864 51.6979 185.128 52.5939 184.6C53.5059 184.072 54.5619 183.808 55.7619 183.808C56.9299 183.808 57.9379 184.072 58.7859 184.6C59.6499 185.112 60.3139 185.792 60.7779 186.64C61.2419 187.488 61.4739 188.432 61.4739 189.472C61.4739 189.632 61.4739 189.808 61.4739 190C61.4739 190.192 61.4659 190.392 61.4499 190.6H51.5139V188.92H59.0739C59.0259 187.96 58.6899 187.2 58.0659 186.64C57.4419 186.08 56.6579 185.8 55.7139 185.8C55.0739 185.8 54.4739 185.944 53.9139 186.232C53.3699 186.52 52.9299 186.944 52.5939 187.504C52.2579 188.048 52.0899 188.744 52.0899 189.592V190.264C52.0899 191.144 52.2579 191.88 52.5939 192.472C52.9299 193.064 53.3699 193.52 53.9139 193.84C54.4739 194.144 55.0739 194.296 55.7139 194.296C56.4659 194.296 57.0979 194.12 57.6099 193.768C58.1219 193.416 58.4979 192.952 58.7379 192.376H61.1379C60.9299 193.128 60.5779 193.8 60.0819 194.392C59.5859 194.968 58.9699 195.432 58.2339 195.784C57.4979 196.12 56.6579 196.288 55.7139 196.288ZM68.7964 196.288C67.8204 196.288 66.9404 196.12 66.1564 195.784C65.3884 195.448 64.7724 194.984 64.3084 194.392C63.8444 193.784 63.5644 193.072 63.4684 192.256H65.8924C65.9884 192.64 66.1564 192.992 66.3964 193.312C66.6364 193.616 66.9564 193.864 67.3564 194.056C67.7724 194.248 68.2524 194.344 68.7964 194.344C69.3244 194.344 69.7564 194.272 70.0924 194.128C70.4284 193.968 70.6764 193.76 70.8364 193.504C70.9964 193.248 71.0764 192.976 71.0764 192.688C71.0764 192.256 70.9644 191.928 70.7404 191.704C70.5164 191.48 70.1884 191.304 69.7564 191.176C69.3404 191.048 68.8364 190.92 68.2444 190.792C67.7644 190.68 67.2684 190.544 66.7564 190.384C66.2444 190.224 65.7804 190.024 65.3644 189.784C64.9484 189.528 64.6124 189.216 64.3564 188.848C64.1004 188.464 63.9724 187.992 63.9724 187.432C63.9724 186.744 64.1484 186.128 64.5004 185.584C64.8684 185.024 65.3884 184.592 66.0604 184.288C66.7324 183.968 67.5324 183.808 68.4604 183.808C69.7724 183.808 70.8364 184.128 71.6524 184.768C72.4844 185.392 72.9644 186.296 73.0924 187.48H70.7884C70.7084 186.936 70.4684 186.512 70.0684 186.208C69.6684 185.904 69.1244 185.752 68.4364 185.752C67.7644 185.752 67.2444 185.888 66.8764 186.16C66.5244 186.432 66.3484 186.792 66.3484 187.24C66.3484 187.512 66.4524 187.76 66.6604 187.984C66.8844 188.192 67.1964 188.368 67.5964 188.512C68.0124 188.656 68.5004 188.792 69.0604 188.92C69.8444 189.08 70.5644 189.28 71.2204 189.52C71.8924 189.76 72.4364 190.104 72.8524 190.552C73.2844 191 73.5004 191.656 73.5004 192.52C73.5164 193.256 73.3324 193.912 72.9484 194.488C72.5644 195.048 72.0204 195.488 71.3164 195.808C70.6124 196.128 69.7724 196.288 68.7964 196.288ZM81.8233 196.288C80.6553 196.288 79.6233 196.032 78.7273 195.52C77.8313 194.992 77.1273 194.264 76.6153 193.336C76.1033 192.408 75.8473 191.32 75.8473 190.072C75.8473 188.824 76.0953 187.736 76.5913 186.808C77.1033 185.864 77.8073 185.128 78.7033 184.6C79.6153 184.072 80.6713 183.808 81.8713 183.808C83.0393 183.808 84.0473 184.072 84.8953 184.6C85.7593 185.112 86.4233 185.792 86.8873 186.64C87.3513 187.488 87.5833 188.432 87.5833 189.472C87.5833 189.632 87.5833 189.808 87.5833 190C87.5833 190.192 87.5753 190.392 87.5593 190.6H77.6233V188.92H85.1833C85.1353 187.96 84.7993 187.2 84.1753 186.64C83.5513 186.08 82.7673 185.8 81.8233 185.8C81.1833 185.8 80.5833 185.944 80.0233 186.232C79.4793 186.52 79.0393 186.944 78.7033 187.504C78.3673 188.048 78.1993 188.744 78.1993 189.592V190.264C78.1993 191.144 78.3673 191.88 78.7033 192.472C79.0393 193.064 79.4793 193.52 80.0233 193.84C80.5833 194.144 81.1833 194.296 81.8233 194.296C82.5753 194.296 83.2073 194.12 83.7193 193.768C84.2313 193.416 84.6073 192.952 84.8473 192.376H87.2473C87.0393 193.128 86.6873 193.8 86.1913 194.392C85.6953 194.968 85.0793 195.432 84.3433 195.784C83.6073 196.12 82.7673 196.288 81.8233 196.288Z" fill="white"/>
</svg>
