<svg width="17" height="18" viewBox="0 0 17 18" fill="none" xmlns="http://www.w3.org/2000/svg">
<path fill-rule="evenodd" clip-rule="evenodd" d="M5.35174 5.38667C5.15986 5.18184 5.05514 4.91043 5.05971 4.6298C5.06429 4.34917 5.17781 4.08132 5.37627 3.88286C5.57473 3.6844 5.84258 3.57088 6.12321 3.56631C6.40384 3.56173 6.67525 3.66645 6.88008 3.85833L11.2582 8.23644C11.4607 8.43918 11.5745 8.71403 11.5745 9.0006C11.5745 9.28718 11.4607 9.56203 11.2582 9.76477L6.88112 14.1418C6.67629 14.3337 6.40488 14.4384 6.12425 14.4339C5.84362 14.4293 5.57577 14.3158 5.37731 14.1173C5.17885 13.9188 5.06533 13.651 5.06075 13.3704C5.05618 13.0897 5.1609 12.8183 5.35278 12.6135L8.96568 9.0006L5.35174 5.38667Z" fill="#BEBEBE"/>
</svg>
