<svg width="22" height="21" viewBox="0 0 22 21" fill="none" xmlns="http://www.w3.org/2000/svg">
<path d="M4 13.5H3C2.46957 13.5 1.96086 13.2893 1.58579 12.9142C1.21071 12.5391 1 12.0304 1 11.5V2.5C1 1.96957 1.21071 1.46086 1.58579 1.08579C1.96086 0.710714 2.46957 0.5 3 0.5H12C12.5304 0.5 13.0391 0.710714 13.4142 1.08579C13.7893 1.46086 14 1.96957 14 2.5V3.5M10 7.5H19C20.1046 7.5 21 8.39543 21 9.5V18.5C21 19.6046 20.1046 20.5 19 20.5H10C8.89543 20.5 8 19.6046 8 18.5V9.5C8 8.39543 8.89543 7.5 10 7.5Z" stroke="#094499" stroke-linecap="round" stroke-linejoin="round"/>
</svg>
