<svg width="21" height="21" viewBox="0 0 21 21" fill="none" xmlns="http://www.w3.org/2000/svg">
<g clip-path="url(#clip0_478_4951)">
<path d="M11.9605 18.6141V15.2875C11.9605 14.8463 11.7852 14.4233 11.4733 14.1113C11.1613 13.7994 10.7383 13.6241 10.2971 13.6241C9.85598 13.6241 9.4329 13.7994 9.12097 14.1113C8.80903 14.4233 8.63379 14.8463 8.63379 15.2875V18.6141" stroke="#952A95" stroke-width="2" stroke-linecap="round" stroke-linejoin="round"/>
<path d="M15.2871 8.63416L18.1539 10.0679C18.292 10.137 18.4082 10.2431 18.4894 10.3744C18.5707 10.5057 18.6137 10.657 18.6138 10.8115V16.9508C18.6138 17.392 18.4386 17.815 18.1266 18.127C17.8147 18.4389 17.3916 18.6142 16.9505 18.6142H3.6438C3.20266 18.6142 2.77958 18.4389 2.46765 18.127C2.15571 17.815 1.98047 17.392 1.98047 16.9508V10.8115C1.98055 10.657 2.02362 10.5057 2.10485 10.3744C2.18607 10.2431 2.30226 10.137 2.44038 10.0679L5.30714 8.63416" stroke="#952A95" stroke-width="2" stroke-linecap="round" stroke-linejoin="round"/>
<path d="M15.2871 4.4758V18.6141" stroke="#952A95" stroke-width="2" stroke-linecap="round" stroke-linejoin="round"/>
<path d="M3.64453 5.30746L9.55435 2.35255C9.78522 2.23718 10.0398 2.17712 10.2979 2.17712C10.556 2.17712 10.8105 2.23718 11.0414 2.35255L16.9512 5.30746" stroke="#952A95" stroke-width="2" stroke-linecap="round" stroke-linejoin="round"/>
<path d="M5.30762 4.4758V18.6141" stroke="#952A95" stroke-width="2" stroke-linecap="round" stroke-linejoin="round"/>
<path d="M10.2971 9.4658C11.2158 9.4658 11.9605 8.7211 11.9605 7.80246C11.9605 6.88383 11.2158 6.13913 10.2971 6.13913C9.37849 6.13913 8.63379 6.88383 8.63379 7.80246C8.63379 8.7211 9.37849 9.4658 10.2971 9.4658Z" stroke="#952A95" stroke-width="2" stroke-linecap="round" stroke-linejoin="round"/>
</g>
<defs>
<clipPath id="clip0_478_4951">
<rect width="19.96" height="19.96" fill="white" transform="translate(0.317383 0.317474)"/>
</clipPath>
</defs>
</svg>
