<svg width="21" height="21" viewBox="0 0 21 21" fill="none" xmlns="http://www.w3.org/2000/svg">
<g clip-path="url(#clip0_478_4933)">
<path d="M3.64407 11.9608C3.48669 11.9613 3.33239 11.9172 3.19909 11.8335C3.0658 11.7499 2.95897 11.6301 2.89104 11.4881C2.82311 11.3462 2.79685 11.1878 2.81532 11.0315C2.83379 10.8753 2.89622 10.7274 2.99537 10.6052L11.2289 2.12219C11.2906 2.0509 11.3748 2.00272 11.4675 1.98557C11.5603 1.96842 11.6561 1.98331 11.7393 2.0278C11.8225 2.07228 11.888 2.14372 11.9253 2.23039C11.9625 2.31706 11.9691 2.41381 11.9441 2.50475L10.3473 7.51139C10.3002 7.6374 10.2844 7.77296 10.3012 7.90643C10.318 8.03991 10.367 8.16731 10.4439 8.27771C10.5207 8.38811 10.6232 8.47821 10.7426 8.54029C10.8619 8.60237 10.9945 8.63457 11.1291 8.63414H16.9507C17.1081 8.6336 17.2624 8.67773 17.3957 8.7614C17.529 8.84507 17.6358 8.96484 17.7038 9.10681C17.7717 9.24877 17.798 9.4071 17.7795 9.56339C17.761 9.71969 17.6986 9.86753 17.5994 9.98975L9.36594 18.4728C9.30418 18.544 9.22002 18.5922 9.12727 18.6094C9.03452 18.6265 8.93869 18.6116 8.85552 18.5671C8.77235 18.5227 8.70677 18.4512 8.66956 18.3645C8.63234 18.2779 8.62569 18.1811 8.65071 18.0902L10.2475 13.0836C10.2946 12.9575 10.3104 12.822 10.2936 12.6885C10.2768 12.555 10.2278 12.4276 10.151 12.3172C10.0741 12.2068 9.97158 12.1167 9.85224 12.0546C9.73289 11.9926 9.60027 11.9604 9.46574 11.9608H3.64407Z" stroke="#F6C02A" stroke-width="2" stroke-linecap="round" stroke-linejoin="round"/>
</g>
<defs>
<clipPath id="clip0_478_4933">
<rect width="19.96" height="19.96" fill="white" transform="translate(0.317383 0.317474)"/>
</clipPath>
</defs>
</svg>
