<svg width="24" height="24" viewBox="0 0 24 24" fill="none" xmlns="http://www.w3.org/2000/svg">
<path d="M12 21C16.9706 21 21 16.9706 21 12C21 7.02944 16.9706 3 12 3C7.02944 3 3 7.02944 3 12C3 16.9706 7.02944 21 12 21Z" fill="white" stroke="#737375"/>
<path d="M12 13C12 11 15 12 15 9C15 6 9 6 9 9" stroke="#737375" stroke-linecap="round" stroke-linejoin="round"/>
<path d="M12.0502 17H11.9502" stroke="#737375" stroke-width="1.5" stroke-linecap="round" stroke-linejoin="round"/>
<path d="M12 21C16.9706 21 21 16.9706 21 12C21 7.02944 16.9706 3 12 3C7.02944 3 3 7.02944 3 12C3 16.9706 7.02944 21 12 21Z" stroke="#737375" stroke-linecap="round" stroke-linejoin="round"/>
</svg>
