<svg width="39" height="39" viewBox="0 0 39 39" fill="none" xmlns="http://www.w3.org/2000/svg">
<g clip-path="url(#clip0_478_4704)">
<path d="M38.2981 0.701904H0.663086V38.3369H38.2981V0.701904Z" fill="#162D4C"/>
<path d="M17.1025 6.33723V6.31812H28.4515V6.33801L17.1025 6.33723Z" fill="#E4B935"/>
<path d="M17.103 6.33716H28.452C28.3662 6.74978 28.282 7.16279 28.1942 7.57502C27.8583 9.15244 27.5213 10.7293 27.1833 12.3057C27.0468 12.9465 26.9103 13.5876 26.7723 14.2276C26.7547 14.3056 26.7625 14.3333 26.8503 14.3345C27.1623 14.3392 27.4743 14.3345 27.7863 14.3224C27.9389 14.3133 28.092 14.3233 28.2422 14.352C28.5152 14.4098 28.5912 14.6067 28.4278 14.8356C28.3364 14.9548 28.2176 15.05 28.0815 15.1133C27.7738 15.2721 27.4407 15.3399 27.1018 15.384C26.9348 15.4096 26.7661 15.4226 26.5972 15.423C26.5316 15.423 26.5149 15.4534 26.504 15.5061C26.4 16.0001 26.295 16.4951 26.1892 16.9912L25.2263 21.5316C25.2068 21.6236 25.1873 21.7152 25.169 21.8081C25.1596 21.8603 25.1409 21.8919 25.0812 21.881C25.065 21.8794 25.0487 21.8794 25.0325 21.881H13.928C13.7939 21.881 13.7942 21.881 13.8231 21.7437C14.379 19.126 14.9346 16.5084 15.49 13.8907C15.614 13.3067 15.7384 12.723 15.8632 12.1396C15.874 12.1058 15.8718 12.0692 15.857 12.037C15.6912 11.709 15.6386 11.3529 15.6038 10.9934C15.5153 10.0792 15.7279 9.206 15.9771 8.33942C16.0492 8.08982 16.3207 7.93616 16.6167 7.9697C16.7255 7.98179 16.7567 7.95215 16.777 7.84919C16.8756 7.35623 16.9837 6.86522 17.089 6.37343C17.0925 6.36094 17.0972 6.3488 17.103 6.33716ZM20.964 14.4102C20.993 14.407 21.0223 14.407 21.0514 14.4102C21.4078 14.4913 21.5903 14.2807 21.7346 14.0057C21.751 13.9741 21.7678 13.9422 21.7818 13.9098C21.8821 13.6816 21.8817 13.6812 21.6972 13.5198C21.6851 13.5084 21.672 13.4979 21.6582 13.4886C21.5775 13.4394 21.5779 13.3868 21.6274 13.3065C21.7808 13.0569 22.005 12.8586 22.2715 12.7368C22.538 12.6151 22.8347 12.5754 23.1238 12.6228C23.2227 12.6362 23.316 12.6767 23.3933 12.7398C23.6468 12.943 23.9089 13.1345 24.1764 13.3193C24.4225 13.4941 24.6794 13.6531 24.9455 13.7955C25.0442 13.847 25.0496 13.8447 25.0407 13.7386C25.0235 13.5381 25.0036 13.3378 24.981 13.1376C24.9307 12.6875 24.7946 12.273 24.5068 11.9114C24.3005 11.6525 24.1043 11.3853 23.8937 11.1295C23.8732 11.1075 23.858 11.081 23.8493 11.0522C23.8406 11.0234 23.8385 10.993 23.8434 10.9633C23.8902 10.5944 23.891 10.5921 23.6609 10.3003C23.1539 9.65762 22.5517 9.10694 21.9363 8.57108C21.9 8.54361 21.8578 8.52516 21.813 8.51726C21.3876 8.41258 20.9523 8.35284 20.5143 8.33903C20.2601 8.32733 20.0245 8.35541 19.8158 8.51141C19.6454 8.63894 19.4648 8.66 19.2507 8.62451C18.5597 8.50946 17.8651 8.41508 17.1713 8.3168C16.9692 8.28833 16.7692 8.2388 16.5629 8.24894C16.3854 8.25713 16.2867 8.31875 16.2419 8.465C16.0208 9.18728 15.8519 9.92009 15.8765 10.6825C15.8893 11.3862 16.1222 12.0681 16.5426 12.6325C17.0106 13.2636 17.6439 13.6684 18.3682 13.9425C19.2032 14.2577 20.076 14.3704 20.9621 14.4086L20.964 14.4102ZM20.886 19.1966C20.8451 19.2235 20.8181 19.2415 20.7908 19.2586C20.4527 19.4708 20.115 19.6837 19.7749 19.8928C19.7063 19.9349 19.7031 19.9567 19.7671 20.0098C20.3131 20.4602 20.8568 20.9142 21.4016 21.3666C21.4152 21.3783 21.4277 21.3982 21.4566 21.3845C21.4624 21.2839 21.4741 21.1806 21.4726 21.0772C21.4724 20.9605 21.497 20.8451 21.5447 20.7387C21.6964 20.3768 21.8415 20.0121 21.9905 19.649C22.0096 19.6045 22.0182 19.5562 22.0158 19.5078C22.0026 19.1865 21.9901 18.8651 21.9803 18.5438C21.9787 18.4856 21.961 18.4291 21.9293 18.3804C21.5845 17.8227 21.2421 17.2638 20.8961 16.7065C20.8808 16.6843 20.8708 16.6589 20.867 16.6322C20.8632 16.6056 20.8657 16.5784 20.8743 16.5528C20.932 16.3535 20.9843 16.1527 21.0416 15.953C21.0632 15.8749 21.0699 15.7934 21.0611 15.7128C21.0408 15.4928 21.0221 15.2728 21.0069 15.0525C21.0026 14.9792 20.9819 14.955 20.9043 14.9546C20.3878 14.955 19.8726 14.9039 19.3662 14.8021C18.0476 14.5291 16.9848 13.8692 16.2267 12.7433C16.2115 12.7211 16.2041 12.6891 16.1635 12.6801C16.1592 12.6984 16.1545 12.7164 16.1506 12.7343C15.8142 14.3302 15.4779 15.9263 15.1417 17.5227C15.0996 17.722 15.0996 17.7244 15.3 17.7454C15.4295 17.7591 15.5528 17.8004 15.69 17.7505C16.355 17.5114 17.0242 17.2845 17.6911 17.0485C17.7242 17.0333 17.7609 17.0276 17.797 17.0322C17.8331 17.0367 17.8672 17.0513 17.8955 17.0742C18.7808 17.706 19.6679 18.3355 20.5568 18.9626L20.886 19.1966ZM17.7683 17.4194C17.7683 17.8968 17.7683 18.3675 17.7683 18.8386C17.7692 18.919 17.7534 18.9986 17.7219 19.0726C17.4645 19.6853 17.2103 20.2996 16.9521 20.9122C16.9374 20.9406 16.9303 20.9723 16.9316 21.0042C16.9328 21.0361 16.9423 21.0672 16.9591 21.0944C17.0137 21.1903 17.0621 21.2894 17.1069 21.3904C17.1152 21.4159 17.132 21.4378 17.1545 21.4525C17.177 21.4671 17.2038 21.4735 17.2305 21.4707C17.8514 21.4672 18.4719 21.4707 19.0924 21.468C19.1193 21.468 19.1501 21.4805 19.179 21.4489C19.122 21.3319 19.067 21.2106 19.0054 21.0936C18.9738 21.0373 18.9644 20.9712 18.9789 20.9083C19.131 20.165 19.2792 19.4205 19.4336 18.6775C19.4492 18.6038 19.4336 18.5672 19.3751 18.5262C18.8661 18.1718 18.3579 17.8162 17.8506 17.4592C17.8282 17.4354 17.7978 17.4206 17.7652 17.4178L17.7683 17.4194ZM26.3542 15.1753C26.4256 15.1753 26.4969 15.1777 26.5683 15.1753C26.9946 15.1582 27.4154 15.1055 27.821 14.9651C27.9458 14.9279 28.0608 14.8636 28.1579 14.7768C28.204 14.7327 28.2457 14.6808 28.2188 14.6141C28.195 14.5548 28.1306 14.5506 28.0768 14.5502C27.9469 14.5502 27.8163 14.5467 27.6868 14.5584C27.1391 14.6107 26.5864 14.5697 26.0523 14.4371C25.1023 14.2011 24.2556 13.753 23.4725 13.1774C23.3709 13.098 23.2495 13.048 23.1215 13.0327C22.7561 12.9937 22.4386 13.0783 22.2023 13.3809C22.1586 13.4367 22.1574 13.4722 22.2147 13.5229C22.5162 13.7901 22.8411 14.0296 23.1854 14.2386C24.1565 14.8306 25.2037 15.1746 26.3511 15.1738L26.3542 15.1753ZM23.4471 14.7534C23.4573 14.8212 23.4666 14.8704 23.4717 14.923C23.4877 15.0907 23.5427 15.2537 23.5259 15.4245C23.4744 15.9483 23.3629 16.4631 23.2943 16.9845C23.2412 17.3905 23.187 17.7969 23.2088 18.2072C23.2264 18.5387 23.334 18.8374 23.6152 19.0344C23.8804 19.22 24.1718 19.2766 24.4779 19.1186C24.5017 19.1086 24.5217 19.0912 24.535 19.0691C24.5483 19.0469 24.5543 19.0211 24.552 18.9954C24.5508 18.8851 24.5399 18.7751 24.5196 18.6666C24.506 18.598 24.4838 18.58 24.4097 18.5933C24.1343 18.6428 23.9452 18.4447 23.999 18.1713C24.0462 17.9311 24.1417 17.7072 24.233 17.4822C24.4549 16.942 24.7185 16.4202 24.949 15.8832C25.0079 15.7319 25.044 15.5728 25.0563 15.4109C25.0625 15.3579 25.0563 15.3306 24.99 15.322C24.8808 15.306 24.7727 15.2836 24.6663 15.2549C24.2393 15.1429 23.8293 14.9742 23.4471 14.7534Z" fill="#DFAC0F"/>
<path d="M21.1408 26.3883C21.2551 26.4066 21.3671 26.437 21.4751 26.4788C21.8292 26.6266 22.0179 26.9007 22.0351 27.2747C22.0671 27.9654 21.7344 28.4728 21.1853 28.8531C20.8324 29.0961 20.4134 29.2252 19.9849 29.2228C19.4166 29.2271 18.848 29.2228 18.2794 29.2228C18.1273 29.2228 18.093 29.1799 18.1234 29.0325C18.4674 27.3656 18.8115 25.6988 19.1557 24.0319C19.1908 23.8607 19.2337 23.8271 19.4053 23.8271C19.7723 23.8271 20.1393 23.8271 20.5067 23.8271C20.8464 23.8271 21.1814 23.8661 21.4957 24.0046C21.8366 24.1547 22.0924 24.3903 22.1291 24.7787C22.1813 25.3329 21.9945 25.799 21.548 26.1484C21.4208 26.2421 21.2844 26.3225 21.1408 26.3883ZM19.6366 28.5929V28.5871C19.7567 28.5871 19.8768 28.5922 19.9966 28.5871C20.5734 28.5594 20.9517 28.2267 21.0558 27.6597C21.14 27.1987 20.9162 26.8797 20.4564 26.8103C20.1693 26.7677 19.8796 26.8001 19.5914 26.79C19.5438 26.79 19.541 26.8165 19.5344 26.8493C19.5024 27.008 19.4693 27.1667 19.4361 27.3251C19.355 27.7151 19.2755 28.1051 19.1916 28.4951C19.1744 28.5731 19.1893 28.6023 19.2766 28.5965C19.396 28.5871 19.5165 28.5929 19.6366 28.5929ZM19.9603 26.159C20.0834 26.1664 20.207 26.1593 20.3285 26.1379C20.7766 26.0353 21.1186 25.6364 21.1631 25.1629C21.1985 24.7865 21.0328 24.5627 20.6642 24.487C20.5008 24.4535 20.3351 24.4628 20.1705 24.4523C20.0574 24.4449 20.0192 24.4792 19.9977 24.5919C19.9037 25.088 19.7996 25.5821 19.6935 26.0763C19.6768 26.1543 19.7002 26.1632 19.7657 26.159C19.8312 26.1547 19.8952 26.159 19.9603 26.159Z" fill="white"/>
<path d="M25.6806 25.8095C25.7317 25.6827 25.7789 25.5755 25.8179 25.4675C25.8289 25.4248 25.8548 25.3874 25.8911 25.3623C25.9273 25.3372 25.9714 25.3259 26.0152 25.3306C26.181 25.3341 26.3467 25.3306 26.5125 25.3306C26.6353 25.3306 26.6712 25.3762 26.6478 25.4936C26.4658 26.3929 26.2838 27.2924 26.1018 28.192C26.0833 28.2646 26.077 28.3397 26.0831 28.4143C26.0998 28.5391 26.1416 28.5832 26.2664 28.5995C26.3444 28.6097 26.3771 28.6526 26.3639 28.7259C26.3416 28.8503 26.3159 28.9743 26.2859 29.0972C26.2795 29.1347 26.2595 29.1686 26.2299 29.1924C26.2002 29.2163 26.1628 29.2285 26.1248 29.2267C25.9687 29.2339 25.8124 29.2187 25.6607 29.1814C25.4209 29.1182 25.2898 28.9634 25.2594 28.7134C25.2559 28.685 25.2547 28.6561 25.252 28.6226C25.2099 28.6327 25.195 28.6678 25.174 28.692C24.6904 29.22 24.0914 29.4072 23.3933 29.2859C22.9229 29.204 22.6304 28.9104 22.5251 28.4412C22.435 28.0415 22.4834 27.6468 22.5641 27.2533C22.6593 26.7853 22.8196 26.3442 23.1101 25.955C23.612 25.2767 24.4201 25.1328 25.0348 25.2869C25.3191 25.3606 25.5289 25.533 25.6806 25.8095ZM23.3796 27.972C23.3797 28.06 23.3872 28.1478 23.4022 28.2345C23.4447 28.4935 23.5875 28.637 23.8464 28.6803C24.3534 28.7653 24.8386 28.5449 25.0909 28.0902C25.3412 27.6323 25.4632 27.1153 25.4443 26.5938C25.4353 26.2248 25.2602 25.9959 24.9497 25.905C24.7676 25.8551 24.5763 25.8477 24.3909 25.8836C24.0625 25.939 23.871 26.1589 23.7368 26.4389C23.5044 26.9233 23.4217 27.4432 23.3796 27.972Z" fill="white"/>
<path d="M33.2017 23.8601C33.0938 24.3853 32.9857 24.9095 32.8772 25.4326C32.7696 25.9564 32.6623 26.4801 32.5539 27.0074C32.6046 27.0043 32.621 26.9684 32.6448 26.945C33.1319 26.4626 33.6198 25.9809 34.1034 25.495C34.1526 25.4413 34.2131 25.399 34.2805 25.3713C34.3479 25.3436 34.4206 25.3311 34.4934 25.3347C34.6716 25.3413 34.8506 25.3347 35.0293 25.3382C35.0683 25.3382 35.1174 25.3277 35.1346 25.3667C35.1517 25.4057 35.1041 25.433 35.0772 25.4579C34.4792 26.0208 33.8794 26.5827 33.2778 27.1435C33.2146 27.2024 33.2146 27.2391 33.2594 27.3085C33.6323 27.8861 34.0004 28.4668 34.3713 29.0463C34.3889 29.0736 34.4064 29.1013 34.4216 29.1294C34.4536 29.1879 34.4361 29.2288 34.3698 29.2292C34.087 29.2292 33.8043 29.232 33.5219 29.2257C33.4373 29.2257 33.3885 29.1567 33.3472 29.0861C33.0666 28.6041 32.7851 28.1231 32.5024 27.6431C32.4853 27.6139 32.4771 27.5764 32.4338 27.5561C32.3535 27.9461 32.2743 28.3311 32.1943 28.7168C32.1694 28.8377 32.1456 28.9586 32.1183 29.0787C32.091 29.1988 32.0454 29.2312 31.9288 29.232C31.747 29.232 31.5649 29.232 31.3828 29.232C31.2205 29.232 31.1901 29.1961 31.2225 29.0405C31.3223 28.558 31.4237 28.0756 31.5235 27.5928C31.7425 26.5395 31.9597 25.4878 32.1752 24.4377C32.1786 24.411 32.1889 24.3855 32.205 24.3639C32.2211 24.3423 32.2426 24.3253 32.2673 24.3145C32.5461 24.1764 32.8226 24.0337 33.1003 23.8936C33.1299 23.8723 33.1653 23.8606 33.2017 23.8601Z" fill="white"/>
<path d="M28.3971 25.9599C28.5323 25.7789 28.6883 25.6144 28.862 25.4697C29.2718 25.1343 30.1025 25.1866 30.4879 25.5387C30.7999 25.8246 30.8845 26.1908 30.817 26.5878C30.7293 27.1022 30.6127 27.6116 30.5109 28.1237C30.4886 28.2348 30.4676 28.3475 30.4984 28.4614C30.5198 28.5413 30.5542 28.6057 30.6544 28.6049C30.7386 28.6049 30.7714 28.6564 30.7574 28.734C30.7351 28.858 30.7102 28.9824 30.6813 29.1053C30.6747 29.1413 30.6552 29.1737 30.6265 29.1965C30.5979 29.2193 30.5619 29.2309 30.5253 29.2293C30.3694 29.2378 30.213 29.2219 30.062 29.1821C29.711 29.0834 29.5378 28.8311 29.555 28.4411C29.5663 28.1763 29.6439 27.9236 29.6903 27.6654C29.7535 27.3144 29.8592 26.9712 29.8787 26.6124C29.8832 26.5412 29.8832 26.4699 29.8787 26.3987C29.8514 26.0048 29.6057 25.8168 29.2192 25.8823C29.0985 25.9018 28.9832 25.9467 28.8811 26.0139C28.7789 26.0811 28.6921 26.1692 28.6264 26.2723C28.4525 26.5274 28.3787 26.8183 28.3171 27.1155C28.1827 27.7629 28.0471 28.4103 27.9104 29.0577C27.8815 29.1942 27.8351 29.2297 27.6955 29.2301C27.5071 29.2301 27.3183 29.2301 27.13 29.2301C27.0102 29.2301 26.974 29.1809 26.9966 29.0632C27.1786 28.1737 27.3614 27.2842 27.5449 26.3948C27.5652 26.2965 27.5894 26.1998 27.5597 26.0968C27.5363 26.0188 27.4942 25.9681 27.4037 25.9607C27.2949 25.9517 27.2715 25.9139 27.2934 25.8047C27.3152 25.6955 27.3371 25.5883 27.3597 25.4806C27.3646 25.4396 27.3846 25.4019 27.4159 25.3749C27.4471 25.3478 27.4873 25.3334 27.5285 25.3344C27.6878 25.3242 27.8477 25.3397 28.002 25.3804C28.259 25.4549 28.3663 25.5863 28.392 25.8523C28.392 25.8804 28.392 25.9085 28.3971 25.9599Z" fill="white"/>
<path d="M5.61924 26.1487H6.20814C6.50064 26.1487 6.79314 26.1487 7.08564 26.1487C7.22643 26.1487 7.26036 26.19 7.23267 26.3281C7.21083 26.4361 7.18743 26.5437 7.16325 26.6514C7.13244 26.7871 7.08525 26.8245 6.93744 26.8245C6.48894 26.8245 6.04044 26.8245 5.59233 26.8214C5.50692 26.8214 5.47143 26.8378 5.4531 26.9302C5.31738 27.6174 5.17308 28.3026 5.03229 28.989C4.99329 29.184 4.96209 29.2105 4.75929 29.2105C4.57404 29.2105 4.38879 29.2105 4.20393 29.2105C4.06977 29.2105 4.03506 29.1673 4.06236 29.0354C4.22616 28.2414 4.39035 27.4476 4.55493 26.6541C4.73433 25.787 4.91321 24.92 5.09157 24.0532C5.13525 23.841 5.1645 23.8153 5.38368 23.8157L7.91868 23.8204C8.09964 23.8204 8.12694 23.8535 8.08989 24.0263C8.06805 24.1277 8.04738 24.2295 8.0232 24.3305C7.99317 24.4564 7.94871 24.4915 7.81923 24.4915C7.23423 24.4915 6.64923 24.4915 6.06423 24.4915C5.98623 24.4915 5.95347 24.506 5.93709 24.589C5.83569 25.1058 5.72727 25.6229 5.61924 26.1487Z" fill="white"/>
<path d="M13.2913 29.3084C12.9826 29.3055 12.6764 29.2529 12.3845 29.1524C12.2817 29.1204 12.188 29.0641 12.1115 28.9882C12.0335 28.9067 12.0335 28.8322 12.1018 28.7449C12.1462 28.6891 12.1958 28.6376 12.2434 28.5838C12.3604 28.45 12.3799 28.4453 12.5554 28.5058C12.7987 28.5877 13.0436 28.6618 13.3022 28.6747C13.5311 28.6867 13.7562 28.6778 13.9722 28.5896C14.0573 28.5563 14.1327 28.5023 14.1917 28.4325C14.2506 28.3627 14.2913 28.2793 14.31 28.1899C14.3462 28.0491 14.3053 27.952 14.1817 27.874C14.0501 27.7968 13.9094 27.7362 13.7628 27.6938C13.5967 27.64 13.4309 27.5819 13.262 27.5378C12.6575 27.3767 12.5121 26.9208 12.6302 26.4017C12.771 25.7836 13.2601 25.3487 13.9102 25.2559C14.3731 25.1908 14.8302 25.2169 15.2662 25.4092C15.3539 25.4438 15.4348 25.4934 15.5053 25.5558C15.5779 25.6252 15.5833 25.683 15.5209 25.7598C15.4429 25.8526 15.3618 25.94 15.2842 26.0328C15.2452 26.0784 15.2027 26.0753 15.1528 26.0609C14.9628 26.0067 14.7815 25.9236 14.5861 25.8881C14.3634 25.8491 14.1403 25.8355 13.9204 25.8986C13.8255 25.9237 13.7387 25.9727 13.6683 26.041C13.5979 26.1093 13.5462 26.1946 13.5183 26.2886C13.4481 26.4973 13.5249 26.6463 13.7347 26.7122C13.9945 26.7937 14.2554 26.8709 14.5147 26.9501C14.6458 26.9865 14.772 27.0389 14.8903 27.1061C15.1095 27.2367 15.2179 27.4329 15.2308 27.6837C15.2655 28.3568 14.9032 28.8907 14.2355 29.1528C13.9488 29.2651 13.6501 29.3096 13.2913 29.3084Z" fill="white"/>
<path d="M16.5506 25.9151C16.4317 25.9151 16.3116 25.9151 16.1918 25.9151C16.053 25.9151 16.0222 25.8788 16.0487 25.7458C16.0678 25.6503 16.0877 25.5551 16.1107 25.4607C16.1172 25.4217 16.1379 25.3864 16.1689 25.3617C16.1998 25.337 16.2389 25.3246 16.2784 25.327C16.3857 25.327 16.4933 25.3207 16.6002 25.327C16.6719 25.332 16.6938 25.3047 16.7051 25.2384C16.7347 25.0629 16.7729 24.8874 16.8065 24.7131C16.8127 24.6811 16.8154 24.6519 16.8509 24.6351C17.1719 24.4736 17.4925 24.3106 17.8224 24.1433C17.831 24.2482 17.7971 24.336 17.7803 24.4249C17.7292 24.6979 17.6734 24.9658 17.6157 25.2357C17.6005 25.3063 17.611 25.3332 17.6918 25.3289C17.8244 25.3223 17.9581 25.3258 18.0911 25.3289C18.1988 25.3309 18.2323 25.3699 18.2132 25.4763C18.1941 25.5828 18.1711 25.6795 18.1465 25.7801C18.1219 25.8808 18.0595 25.9194 17.9616 25.9186C17.822 25.9186 17.682 25.9186 17.5424 25.9186C17.4925 25.9186 17.4671 25.9299 17.4562 25.9829C17.3114 26.7083 17.1653 27.4332 17.0178 28.1576C16.9999 28.2407 17.0041 28.327 17.0299 28.408C17.0496 28.4635 17.0865 28.5114 17.1351 28.5447C17.1837 28.578 17.2417 28.5949 17.3006 28.5932C17.5584 28.5998 17.5607 28.6022 17.5116 28.8561C17.4964 28.9341 17.4792 29.0148 17.4609 29.0936C17.4555 29.1296 17.4372 29.1625 17.4095 29.1861C17.3817 29.2097 17.3464 29.2224 17.31 29.2219C17.1025 29.227 16.893 29.2406 16.686 29.204C16.2804 29.1314 16.0795 28.892 16.0725 28.4754C16.0678 28.2024 16.1423 27.9423 16.1957 27.6787C16.3127 27.1003 16.4332 26.5223 16.5518 25.9439C16.5527 25.9343 16.5523 25.9246 16.5506 25.9151Z" fill="white"/>
<path d="M11.1662 25.7623C11.204 25.7138 11.2442 25.6674 11.2867 25.623C11.578 25.3469 11.9341 25.2545 12.3249 25.2619C12.4029 25.2619 12.4368 25.2868 12.4158 25.3746C12.3736 25.5478 12.3413 25.7233 12.3038 25.8976C12.2707 26.0536 12.2196 26.0793 12.064 26.0602C11.665 26.0115 11.2286 26.1487 11.0987 26.7232C10.9256 27.4915 10.7598 28.2618 10.5917 29.0312C10.5527 29.2149 10.5184 29.243 10.3281 29.2426C10.1561 29.2426 9.98373 29.2426 9.81174 29.2426C9.67719 29.2426 9.64404 29.1993 9.67251 29.0667C9.86413 28.176 10.056 27.2855 10.2481 26.3952C10.2688 26.3167 10.279 26.2358 10.2786 26.1546C10.2723 26.0251 10.2255 25.9713 10.0957 25.9502C10.0177 25.9378 9.981 25.8941 9.99621 25.8145C10.0184 25.6975 10.0407 25.5805 10.0672 25.4635C10.0726 25.4241 10.0924 25.3881 10.1227 25.3624C10.1529 25.3366 10.1916 25.3229 10.2314 25.3239C10.4326 25.3208 10.6342 25.3239 10.8296 25.3836C11.0114 25.4389 11.1229 25.5559 11.1385 25.7533L11.1662 25.7623Z" fill="white"/>
<path d="M7.75417 28.5613C7.76236 28.2832 7.8427 28.0176 7.90042 27.7485C8.05915 27.0075 8.22217 26.2665 8.38402 25.5255C8.41366 25.3894 8.46202 25.3523 8.59852 25.3516C8.78052 25.3516 8.96252 25.3516 9.14452 25.3516C9.28141 25.3516 9.31456 25.3906 9.28609 25.5228C9.09447 26.4104 8.9022 27.2978 8.70928 28.1849C8.68288 28.2924 8.67327 28.4033 8.68081 28.5137C8.69251 28.6381 8.73658 28.6853 8.8567 28.7032C8.92846 28.7141 8.96161 28.7567 8.94952 28.8249C8.9269 28.9528 8.90116 29.08 8.87152 29.2059C8.86413 29.2396 8.84527 29.2697 8.81818 29.291C8.79108 29.3124 8.75742 29.3236 8.72293 29.3229C8.52793 29.3292 8.33293 29.3136 8.14963 29.236C7.8778 29.1229 7.74715 28.8943 7.75417 28.5613Z" fill="white"/>
<path d="M21.3798 31.608C21.709 31.7948 21.7379 32.1696 21.4578 32.4398C21.2535 32.6387 20.8073 32.7027 20.5538 32.5701C20.4947 32.5416 20.445 32.4969 20.4104 32.4412C20.3759 32.3854 20.358 32.3209 20.3588 32.2554C20.3511 32.1428 20.3753 32.0303 20.4284 31.9308C20.4816 31.8313 20.5617 31.7488 20.6595 31.6926C20.7083 31.6622 20.7617 31.6392 20.8124 31.6146C20.8124 31.6072 20.8124 31.5982 20.8093 31.5966C20.532 31.4531 20.5936 31.1899 20.7387 30.9836C20.812 30.8868 20.9171 30.819 21.0355 30.7921C21.1679 30.7571 21.3064 30.7518 21.4411 30.7765C21.5705 30.7979 21.6891 30.8517 21.7293 30.9906C21.7538 31.0646 21.759 31.1436 21.7443 31.2201C21.7296 31.2966 21.6956 31.3681 21.6454 31.4278C21.5764 31.5089 21.4851 31.5576 21.3798 31.608ZM20.6911 32.1579C20.6882 32.2134 20.706 32.2681 20.7411 32.3113C20.7762 32.3546 20.826 32.3832 20.881 32.3919C21.1388 32.4472 21.388 32.1836 21.3237 31.9239C21.3133 31.8725 21.2855 31.8263 21.245 31.7931C21.2045 31.7599 21.1538 31.7418 21.1014 31.7417C20.8818 31.7324 20.6903 31.9258 20.6911 32.1579ZM21.2305 31.0003C21.1932 31.0001 21.1562 31.0072 21.1217 31.0212C21.0872 31.0352 21.0558 31.0559 21.0293 31.0821C21.0028 31.1083 20.9817 31.1395 20.9672 31.1738C20.9527 31.2082 20.9452 31.245 20.945 31.2823C20.9434 31.3082 20.947 31.3342 20.9556 31.3586C20.9642 31.3831 20.9776 31.4057 20.995 31.4249C21.0124 31.4442 21.0334 31.4597 21.0569 31.4708C21.0804 31.4818 21.1059 31.488 21.1318 31.489C21.2741 31.4913 21.4243 31.333 21.4274 31.1805C21.4294 31.0737 21.3498 31.0011 21.2305 31.0003Z" fill="white"/>
<path d="M23.1834 31.1276C23.1753 31.0408 23.1389 30.959 23.0798 30.8949C23.0207 30.8308 22.9421 30.788 22.8562 30.7731C22.7341 30.7512 22.6084 30.761 22.4911 30.8015C22.155 30.9228 22.0329 31.1966 22.0013 31.5199C21.9682 31.8678 22.1702 32.0472 22.5188 32.0066C22.6507 31.991 22.7415 31.9173 22.8351 31.8311C22.826 31.9447 22.79 32.0544 22.7302 32.1513C22.6292 32.3338 22.4783 32.4267 22.2646 32.3908C22.1937 32.3827 22.1239 32.3678 22.0559 32.3463C21.9389 32.3023 21.9362 32.4056 21.903 32.459C21.8617 32.5257 21.9338 32.5402 21.9721 32.5589C22.2946 32.7192 22.6487 32.6501 22.8691 32.3576C23.1452 31.9961 23.2419 31.5769 23.1834 31.1276ZM22.9042 31.3003C22.8899 31.4101 22.8545 31.516 22.8 31.6123C22.7384 31.7134 22.6538 31.7742 22.5294 31.7683C22.3734 31.7644 22.3051 31.6946 22.3086 31.516C22.3158 31.4101 22.3434 31.3065 22.3897 31.211C22.4189 31.1454 22.4673 31.0902 22.5286 31.0527C22.6195 31 22.7197 30.9716 22.8137 31.0316C22.9077 31.0917 22.9217 31.195 22.9042 31.3003Z" fill="white"/>
<path d="M24.0632 32.1749H23.3729C23.2774 32.1749 23.259 32.1449 23.3027 32.0579C23.3201 32.027 23.3413 31.9984 23.3659 31.9729C23.6814 31.611 24.002 31.2533 24.3113 30.8863C24.4021 30.7783 24.5063 30.7896 24.619 30.7955C24.6825 30.7986 24.658 30.8512 24.6506 30.8856C24.5954 31.1554 24.5398 31.4251 24.4836 31.6944C24.4741 31.7553 24.461 31.8156 24.4446 31.875C24.4224 31.9436 24.4528 31.9475 24.509 31.9507C24.5531 31.953 24.6315 31.9117 24.6295 32.0092C24.6268 32.1418 24.5979 32.1839 24.4989 32.1733C24.3998 32.1628 24.3651 32.2022 24.3588 32.2903C24.3544 32.3224 24.348 32.3542 24.3397 32.3855C24.291 32.6242 24.291 32.6222 24.0472 32.609C23.9868 32.6055 23.9759 32.5813 23.9868 32.531C24.0121 32.4167 24.0359 32.3024 24.0632 32.1749ZM24.2457 31.2841L23.69 31.9471C23.8312 31.9471 23.9462 31.9471 24.0613 31.9471C24.0684 31.9481 24.0757 31.9476 24.0827 31.9456C24.0897 31.9436 24.0961 31.9402 24.1017 31.9356C24.1073 31.931 24.1118 31.9252 24.1151 31.9188C24.1183 31.9123 24.1202 31.9052 24.1206 31.898C24.1596 31.703 24.1997 31.5072 24.2454 31.2838L24.2457 31.2841Z" fill="white"/>
<path d="M12.9387 32.6305C12.7898 32.6302 12.6424 32.6011 12.5046 32.5447C12.4703 32.5298 12.4028 32.5209 12.4336 32.4667C12.4644 32.4124 12.4699 32.3071 12.5799 32.3333C12.7305 32.3732 12.8858 32.3924 13.0416 32.3902C13.1235 32.3883 13.2038 32.3668 13.2756 32.3274C13.457 32.226 13.4636 32.0326 13.2842 31.9269C13.1959 31.88 13.1048 31.8389 13.0112 31.8037C12.6263 31.6379 12.5549 31.2623 12.8603 30.9714C13.106 30.7374 13.402 30.7175 13.7152 30.7978C13.7433 30.8053 13.7706 30.8154 13.7982 30.8248C13.9468 30.8758 13.9496 30.8868 13.8684 31.0151C13.8642 31.0245 13.8582 31.033 13.8507 31.04C13.8432 31.0471 13.8344 31.0526 13.8247 31.0562C13.8151 31.0598 13.8048 31.0615 13.7945 31.0611C13.7842 31.0608 13.7741 31.0584 13.7647 31.0541C13.6125 31.0066 13.4525 30.9892 13.2936 31.0026C13.2397 31.0059 13.1874 31.022 13.1409 31.0496C13.0945 31.0771 13.0552 31.1153 13.0264 31.1609C12.9484 31.2877 12.9773 31.4027 13.1103 31.4679C13.2004 31.5119 13.2955 31.5459 13.3876 31.5849C13.7846 31.7533 13.8408 32.1964 13.4999 32.4624C13.3579 32.5716 13.1703 32.6293 12.9387 32.6305Z" fill="white"/>
<path d="M15.2397 31.4917C15.3306 31.3938 15.4066 31.3013 15.5334 31.2733C15.877 31.1976 16.1141 31.4269 16.0439 31.7709C16.0111 31.9327 15.9764 32.0942 15.9452 32.2564C15.9343 32.3142 15.9277 32.366 16.0053 32.398C16.0661 32.423 16.0135 32.4834 16.0115 32.5279C16.0123 32.5376 16.011 32.5473 16.0078 32.5565C16.0046 32.5657 15.9995 32.5741 15.9929 32.5812C15.9862 32.5883 15.9782 32.594 15.9692 32.5978C15.9603 32.6017 15.9506 32.6036 15.9409 32.6035C15.728 32.6277 15.5946 32.4908 15.632 32.2787C15.6601 32.1192 15.6944 31.9608 15.7256 31.8017C15.7313 31.776 15.7349 31.75 15.7362 31.7237C15.7389 31.6313 15.7362 31.5377 15.6383 31.4897C15.554 31.448 15.4218 31.4835 15.3462 31.5677C15.2705 31.6519 15.2358 31.7627 15.2124 31.8758C15.1672 32.0915 15.1204 32.3068 15.0778 32.5232C15.0774 32.5352 15.0745 32.5469 15.0692 32.5577C15.0639 32.5685 15.0565 32.578 15.0473 32.5857C15.0381 32.5934 15.0274 32.5991 15.0158 32.6023C15.0043 32.6056 14.9922 32.6064 14.9803 32.6047C14.7522 32.6102 14.7526 32.6121 14.7986 32.3887C14.8493 32.1409 14.8996 31.8932 14.9495 31.6457C14.9616 31.5853 14.9788 31.5213 14.8895 31.4987C14.8505 31.4885 14.8591 31.4515 14.8692 31.4257C14.8871 31.3809 14.8649 31.3158 14.9335 31.2963C14.9666 31.2858 15.0015 31.2828 15.0358 31.2873C15.0702 31.2918 15.1031 31.3038 15.1323 31.3224C15.1615 31.3411 15.1862 31.3659 15.2048 31.3951C15.2233 31.4243 15.2353 31.4573 15.2397 31.4917Z" fill="white"/>
<path d="M18.1624 32.0557C18.0782 32.0557 17.9932 32.06 17.9093 32.0557C17.8469 32.0518 17.8313 32.0783 17.8313 32.1337C17.8231 32.3388 17.9339 32.4476 18.1371 32.4227C18.2206 32.4122 18.3029 32.3934 18.3828 32.3665C18.4448 32.3458 18.4678 32.3665 18.4924 32.4192C18.5169 32.4718 18.506 32.5124 18.4534 32.5389C18.2931 32.6203 18.1125 32.6531 17.9339 32.6333C17.6316 32.6036 17.4947 32.4285 17.5232 32.1243C17.5354 31.959 17.579 31.7976 17.6515 31.6485C17.8009 31.351 18.0805 31.2137 18.4011 31.278C18.5875 31.317 18.6975 31.4391 18.7069 31.629C18.71 31.6874 18.7061 31.7459 18.6952 31.8034C18.6562 31.9913 18.5782 32.0549 18.3867 32.0588C18.3122 32.0588 18.2373 32.0588 18.1628 32.0588L18.1624 32.0557ZM17.8828 31.8424H18.2989C18.3149 31.8442 18.331 31.8416 18.3455 31.8347C18.36 31.8278 18.3722 31.8169 18.3808 31.8034C18.4229 31.7312 18.403 31.5799 18.3418 31.5206C18.2806 31.4613 18.1893 31.4566 18.0988 31.5081C17.9721 31.5795 17.9257 31.707 17.8828 31.8424Z" fill="white"/>
<path d="M9.1799 23.868C9.28364 23.868 9.38738 23.8656 9.4919 23.868C9.58628 23.8707 9.62333 23.914 9.60539 24.0045C9.56483 24.2078 9.52193 24.4103 9.47669 24.6121C9.4529 24.7162 9.39869 24.7587 9.28949 24.7595C9.09449 24.7595 8.89949 24.7595 8.70449 24.7595C8.58281 24.7576 8.54849 24.7112 8.57462 24.5926C8.61362 24.4027 8.65574 24.2127 8.69825 24.0236C8.7236 23.9105 8.77391 23.8703 8.8874 23.8676C8.98451 23.8676 9.0824 23.8676 9.17912 23.8676L9.1799 23.868Z" fill="white"/>
<path d="M19.8358 31.1676C19.7305 31.2113 19.6361 31.2507 19.5409 31.2885C19.5175 31.2979 19.4836 31.3143 19.4692 31.3049C19.4411 31.287 19.4633 31.2515 19.4649 31.2234C19.4708 31.122 19.5226 31.0631 19.6209 31.026C19.7995 30.9574 19.9719 30.8759 20.1486 30.8006C20.1743 30.7893 20.2028 30.7616 20.2266 30.778C20.2504 30.7944 20.2301 30.8322 20.2266 30.8587C20.1146 31.4086 20.0008 31.9581 19.89 32.508C19.8752 32.5818 19.8424 32.6083 19.7656 32.6071C19.5437 32.604 19.5452 32.6071 19.5909 32.3907C19.672 32.0069 19.7508 31.6224 19.8303 31.2382C19.8331 31.2199 19.8327 31.2 19.8358 31.1676Z" fill="white"/>
<path d="M16.2981 32.1641C16.3021 31.9849 16.345 31.8088 16.4237 31.6478C16.5863 31.3085 17.02 31.156 17.3511 31.3229C17.3932 31.3443 17.4716 31.3553 17.4439 31.4329C17.4123 31.5194 17.3355 31.5565 17.2598 31.5206C16.9615 31.3802 16.7505 31.5569 16.6706 31.8057C16.6276 31.9284 16.608 32.058 16.6128 32.1879C16.623 32.3494 16.7232 32.4352 16.8858 32.4219C16.963 32.4117 17.0387 32.3923 17.1113 32.3642C17.1503 32.3513 17.1854 32.3388 17.2052 32.393C17.2216 32.4379 17.2532 32.4769 17.1998 32.5225C17.0356 32.6625 16.6121 32.6735 16.4432 32.5385C16.3199 32.4426 16.295 32.3084 16.2981 32.1641Z" fill="white"/>
<path d="M13.9854 32.3102C14.0212 32.1312 14.0634 31.9202 14.1074 31.7061C14.13 31.595 14.1566 31.4846 14.1761 31.373C14.1764 31.361 14.1792 31.3493 14.1844 31.3384C14.1896 31.3276 14.1971 31.318 14.2062 31.3103C14.2154 31.3026 14.2261 31.2969 14.2377 31.2936C14.2492 31.2903 14.2613 31.2894 14.2732 31.2911C14.5037 31.2841 14.5025 31.2822 14.4565 31.5045C14.4054 31.7521 14.3547 31.9994 14.3059 32.2474C14.2942 32.3075 14.2829 32.3644 14.3668 32.3968C14.4261 32.4194 14.3757 32.4748 14.3738 32.5181C14.3718 32.5614 14.3601 32.593 14.3106 32.6027C14.1355 32.637 13.9854 32.5189 13.9854 32.3102Z" fill="white"/>
<path d="M14.4585 30.7348C14.4975 30.7348 14.5276 30.7348 14.5564 30.7348C14.5853 30.7348 14.6114 30.7472 14.6056 30.78C14.5923 30.8529 14.5759 30.9251 14.558 30.9968C14.551 31.0241 14.526 31.0335 14.4987 31.0386C14.2686 31.0799 14.2421 31.0475 14.2889 30.8217C14.3127 30.6993 14.4008 30.7453 14.4585 30.7348Z" fill="white"/>
<path d="M20.9615 14.4086C20.0755 14.3696 19.2026 14.2576 18.3669 13.9406C17.6426 13.6676 17.0093 13.2616 16.5413 12.6306C16.1209 12.0661 15.888 11.3842 15.8752 10.6806C15.8522 9.91811 16.0195 9.1853 16.2406 8.46302C16.2854 8.31677 16.3841 8.25515 16.5616 8.24696C16.7679 8.23682 16.9679 8.28596 17.17 8.31482C17.8638 8.4131 18.5584 8.50748 19.2494 8.62253C19.4632 8.65802 19.6441 8.63696 19.8146 8.50943C20.0232 8.35343 20.2588 8.32535 20.513 8.33705C20.9512 8.35186 21.3866 8.41264 21.8121 8.5184C21.8569 8.5263 21.8992 8.54475 21.9354 8.57222C22.5508 9.10808 23.1518 9.65876 23.66 10.3015C23.8901 10.5924 23.8893 10.5948 23.8425 10.9645C23.8376 10.9942 23.8397 11.0246 23.8484 11.0534C23.8571 11.0822 23.8723 11.1086 23.8928 11.1306C24.1034 11.3865 24.2996 11.6536 24.5059 11.9126C24.7937 12.2741 24.9298 12.6887 24.9801 13.1387C25.0027 13.3387 25.0226 13.539 25.0398 13.7397C25.0487 13.8458 25.0433 13.8481 24.9446 13.7967C24.6785 13.6542 24.4216 13.4952 24.1755 13.3205C23.908 13.1356 23.6459 12.9441 23.3924 12.7409C23.3151 12.6778 23.2218 12.6373 23.1229 12.6239C22.8338 12.5765 22.5371 12.6162 22.2706 12.738C22.0041 12.8597 21.7799 13.058 21.6265 13.3076C21.577 13.3879 21.5766 13.4406 21.6573 13.4897C21.6711 13.4991 21.6842 13.5095 21.6963 13.5209C21.8808 13.6808 21.8812 13.6812 21.7809 13.9109C21.7669 13.9433 21.7501 13.9753 21.7337 14.0069C21.5894 14.2799 21.4069 14.4924 21.0505 14.4113C21.021 14.4072 20.9912 14.4062 20.9615 14.4086ZM21.9069 11.0074L21.38 10.4161C21.3359 10.3666 21.3118 10.4161 21.286 10.4372C21.0193 10.6696 20.753 10.9029 20.4873 11.1369C20.4647 11.1568 20.4311 11.17 20.4265 11.2129L21.9069 11.0074Z" fill="#162D4C"/>
<path d="M20.8826 19.1951L20.5547 18.9611C19.667 18.3324 18.7799 17.7034 17.8933 17.0739C17.865 17.051 17.8309 17.0364 17.7948 17.0319C17.7587 17.0273 17.722 17.033 17.6889 17.0482C17.022 17.2822 16.3528 17.5095 15.6878 17.7502C15.5494 17.8001 15.4262 17.7588 15.2978 17.7451C15.0974 17.724 15.0974 17.7217 15.1395 17.5224C15.4749 15.9252 15.8104 14.3286 16.1461 12.7324C16.15 12.7145 16.1547 12.6966 16.159 12.6782C16.198 12.6872 16.2069 12.7192 16.2221 12.7414C16.9803 13.8673 18.0431 14.5288 19.3616 14.8002C19.868 14.902 20.3833 14.9531 20.8998 14.9527C20.9778 14.9527 20.9981 14.9773 21.0024 15.0506C21.016 15.2709 21.0363 15.4909 21.0566 15.7109C21.0653 15.7915 21.0587 15.873 21.0371 15.9511C20.9798 16.1508 20.9275 16.3516 20.8698 16.5509C20.8612 16.5765 20.8587 16.6037 20.8625 16.6303C20.8663 16.657 20.8763 16.6824 20.8916 16.7046C21.2375 17.2619 21.58 17.8208 21.9247 18.3785C21.9565 18.4272 21.9742 18.4837 21.9758 18.5419C21.9856 18.8632 21.998 19.1846 22.0113 19.506C22.0137 19.5543 22.005 19.6026 21.986 19.6471C21.837 20.0102 21.6919 20.3749 21.5402 20.7368C21.4924 20.8433 21.4678 20.9586 21.468 21.0753C21.468 21.1787 21.4579 21.282 21.452 21.3826C21.4232 21.3963 21.4107 21.3764 21.3971 21.3647C20.8511 20.9123 20.309 20.4583 19.7626 20.0079C19.6986 19.9552 19.7017 19.9334 19.7704 19.8909C20.1104 19.6818 20.4482 19.4689 20.7863 19.2567C20.8148 19.24 20.8417 19.222 20.8826 19.1951Z" fill="#162D4C"/>
<path d="M17.7644 17.4177C17.7963 17.421 17.826 17.4357 17.8479 17.4591C18.3562 17.8147 18.8644 18.17 19.3724 18.5249C19.4317 18.5659 19.4465 18.6029 19.4309 18.6763C19.2749 19.4173 19.1283 20.1637 18.9762 20.9071C18.9617 20.97 18.9711 21.036 19.0027 21.0923C19.0643 21.2093 19.1197 21.3298 19.1762 21.4476C19.1474 21.4792 19.1166 21.4667 19.0897 21.4667C18.4692 21.4667 17.8487 21.4667 17.2278 21.4694C17.2011 21.4723 17.1743 21.4658 17.1517 21.4512C17.1292 21.4366 17.1124 21.4146 17.1042 21.3891C17.0593 21.2885 17.011 21.189 16.9564 21.0931C16.9396 21.0659 16.9301 21.0349 16.9288 21.0029C16.9276 20.971 16.9347 20.9393 16.9493 20.911C17.2075 20.2983 17.4618 19.684 17.7192 19.0713C17.7507 18.9974 17.7665 18.9177 17.7656 18.8373C17.7629 18.3658 17.7644 17.8951 17.7644 17.4177Z" fill="#162D4C"/>
<path d="M26.3509 15.1738C25.2035 15.1738 24.1564 14.8306 23.1829 14.2378C22.8385 14.0289 22.5137 13.7894 22.2122 13.5222C22.1549 13.4715 22.156 13.436 22.1997 13.3802C22.4361 13.0776 22.7535 12.9933 23.119 13.032C23.247 13.0472 23.3684 13.0973 23.47 13.1766C24.2531 13.7523 25.0998 14.2004 26.0498 14.4363C26.5833 14.5681 27.1353 14.6084 27.6823 14.5557C27.8114 14.544 27.9421 14.5463 28.0723 14.5475C28.1262 14.5475 28.1893 14.5522 28.2143 14.6115C28.2412 14.6781 28.1995 14.7285 28.1535 14.7741C28.0564 14.8609 27.9413 14.9252 27.8165 14.9625C27.4109 15.1029 26.9901 15.1555 26.5638 15.1727C26.4936 15.1762 26.4223 15.1738 26.3509 15.1738Z" fill="#162D4C"/>
<path d="M23.4472 14.7534C23.8297 14.9745 24.2401 15.1433 24.6675 15.2553C24.7739 15.2841 24.882 15.3065 24.9912 15.3224C25.0555 15.331 25.0637 15.3583 25.0575 15.4113C25.0452 15.5732 25.0091 15.7324 24.9502 15.8836C24.7197 16.4199 24.4561 16.9417 24.2342 17.4826C24.1418 17.7077 24.0462 17.9315 24.0002 18.1718C23.9464 18.4448 24.1355 18.6433 24.4108 18.5937C24.4849 18.5805 24.5072 18.5984 24.5208 18.6671C24.5411 18.7755 24.552 18.8855 24.5532 18.9958C24.5555 19.0216 24.5495 19.0474 24.5362 19.0695C24.5229 19.0917 24.5029 19.109 24.4791 19.1191C24.1729 19.277 23.8816 19.2205 23.6164 19.0348C23.3352 18.8379 23.2264 18.5391 23.21 18.2076C23.1882 17.7974 23.2424 17.391 23.2955 16.985C23.3641 16.464 23.4756 15.9492 23.5271 15.425C23.5439 15.2542 23.4881 15.0912 23.4729 14.9235C23.4667 14.872 23.4573 14.8201 23.4472 14.7534Z" fill="#162D4C"/>
<path d="M21.9068 11.0073L20.4248 11.2128C20.4295 11.1699 20.4638 11.1567 20.4856 11.1368C20.7511 10.9028 21.0173 10.6696 21.2844 10.4371C21.3101 10.4149 21.3343 10.3665 21.3784 10.4161L21.9068 11.0073Z" fill="#DCAA10"/>
</g>
<defs>
<clipPath id="clip0_478_4704">
<rect width="39" height="39" rx="19.5" fill="white"/>
</clipPath>
</defs>
</svg>
