<svg width="12" height="8" viewBox="0 0 12 8" fill="none" xmlns="http://www.w3.org/2000/svg">
<path opacity="0.4" d="M3.906 5.03911L1.68206 5.23579C1.18297 5.23579 0.77832 4.8272 0.77832 4.32325C0.77832 3.81929 1.18297 3.4107 1.68206 3.4107L3.906 3.60738C4.29754 3.60738 4.61496 3.9279 4.61496 4.32325C4.61496 4.71926 4.29754 5.03911 3.906 5.03911" fill="#6FA97E"/>
<path d="M11.3738 5.00296C11.339 5.03806 11.2091 5.1864 11.0872 5.30957C10.3756 6.08107 8.51759 7.34261 7.54564 7.72869C7.39808 7.79027 7.02491 7.92139 6.82488 7.93066C6.63403 7.93066 6.4517 7.88629 6.27791 7.79888C6.06083 7.67637 5.88769 7.483 5.79193 7.25519C5.73094 7.09758 5.63519 6.62409 5.63519 6.61548C5.54009 6.09829 5.48828 5.25726 5.48828 4.32749C5.48828 3.44276 5.54009 2.63617 5.61814 2.11036C5.62666 2.10109 5.72241 1.5137 5.82669 1.31238C6.01754 0.944183 6.39071 0.716378 6.79012 0.716378H6.82488C7.08524 0.724987 7.63221 0.953455 7.63221 0.961402C8.55235 1.34748 10.3664 2.54809 11.0957 3.34608C11.0957 3.34608 11.3016 3.55137 11.3908 3.67918C11.5298 3.86327 11.5994 4.09108 11.5994 4.31889C11.5994 4.57318 11.5213 4.80959 11.3738 5.00296" fill="#6FA97E"/>
</svg>
