<svg width="21" height="21" viewBox="0 0 21 21" fill="none" xmlns="http://www.w3.org/2000/svg">
<path d="M16.9508 6.97076H3.64417C3.18485 6.97076 2.8125 7.34311 2.8125 7.80243V9.46576C2.8125 9.92508 3.18485 10.2974 3.64417 10.2974H16.9508C17.4101 10.2974 17.7825 9.92508 17.7825 9.46576V7.80243C17.7825 7.34311 17.4101 6.97076 16.9508 6.97076Z" stroke="#6FA97E" stroke-width="2" stroke-linecap="round" stroke-linejoin="round"/>
<path d="M10.2979 6.97076V17.7824" stroke="#6FA97E" stroke-width="2" stroke-linecap="round" stroke-linejoin="round"/>
<path d="M16.1189 10.2975V16.1191C16.1189 16.5603 15.9437 16.9833 15.6317 17.2953C15.3198 17.6072 14.8967 17.7825 14.4556 17.7825H6.13892C5.69778 17.7825 5.2747 17.6072 4.96276 17.2953C4.65083 16.9833 4.47559 16.5603 4.47559 16.1191V10.2975" stroke="#6FA97E" stroke-width="2" stroke-linecap="round" stroke-linejoin="round"/>
<path d="M6.55475 6.97077C6.00332 6.97077 5.47448 6.75171 5.08456 6.3618C4.69464 5.97188 4.47559 5.44303 4.47559 4.8916C4.47559 4.34017 4.69464 3.81133 5.08456 3.42141C5.47448 3.03149 6.00332 2.81244 6.55475 2.81244C7.35705 2.79846 8.14326 3.18773 8.81084 3.9295C9.47843 4.67126 9.99642 5.73109 10.2973 6.97077C10.5981 5.73109 11.1161 4.67126 11.7837 3.9295C12.4512 3.18773 13.2375 2.79846 14.0398 2.81244C14.5912 2.81244 15.12 3.03149 15.5099 3.42141C15.8999 3.81133 16.1189 4.34017 16.1189 4.8916C16.1189 5.44303 15.8999 5.97188 15.5099 6.3618C15.12 6.75171 14.5912 6.97077 14.0398 6.97077" stroke="#6FA97E" stroke-width="2" stroke-linecap="round" stroke-linejoin="round"/>
</svg>
