<svg width="39" height="39" viewBox="0 0 39 39" fill="none" xmlns="http://www.w3.org/2000/svg">
<g clip-path="url(#clip0_478_4688)">
<path d="M0 39H39V0H0V39Z" fill="#DE4A09"/>
<path d="M8.49351 28.2616C8.29826 28.3104 7.22442 28.6033 6.29701 28.6033C5.12555 28.6033 3.90527 28.2616 3.90527 25.4306C3.90527 22.6483 5.51604 22.1602 6.73631 22.1602C7.61491 22.1602 8.29826 22.5019 8.29826 22.5019V23.3317C8.29826 23.3317 7.51729 23.0388 6.73631 23.0388C5.95534 23.0388 5.02793 23.3805 5.02793 25.3817C5.02793 27.4318 5.76009 27.7247 6.39464 27.7247C6.83393 27.7247 7.41967 27.5782 7.41967 27.5782V25.4794H6.44345L6.34582 24.6984H8.49351V28.2616ZM9.17686 22.1602H13.7651L13.6187 23.1364H12.1055V28.5545H10.8852V23.1852H9.12805V22.1602H9.17686ZM14.7413 22.209L16.889 22.1602C19.5736 22.1602 19.5248 25.0401 17.9628 25.1865C19.6712 25.4306 19.5736 27.9687 17.9628 28.5545H14.7901V22.209H14.7413ZM15.9128 23.1852V24.8448H17.0354C17.67 24.796 18.0117 23.3805 17.0842 23.1852H15.9128ZM15.9128 25.7234V27.5782H17.0354C18.3045 27.5782 18.0117 25.7722 17.0842 25.7234H15.9128ZM20.3546 23.9662C21.9653 23.2341 23.8202 23.3805 24.113 24.6008V28.5545H22.9904V27.9199C22.0142 28.9938 19.6712 28.7985 19.9641 26.602C20.1593 25.577 21.2332 25.2841 22.8928 25.4306C23.0392 24.015 21.2332 24.6984 20.3546 24.9424V23.9662ZM21.282 26.4556C20.5498 27.6759 22.0142 28.0663 22.8928 27.1389V26.3092C22.3558 26.1139 21.526 26.1139 21.282 26.4556ZM26.456 25.1377V28.6033H25.1869V23.5757H26.3583V24.1615C28.1155 23.1364 29.5311 23.4293 29.7751 24.8936V28.5545H28.506V25.0889C28.262 24.2103 26.7488 24.796 26.456 25.1377ZM30.7025 28.6033V22.1602H31.9228V28.5545H30.7025V28.6033ZM33.6312 23.5757H35.0955L33.3871 25.821L35.2419 28.6033H33.8752L32.0692 25.7722L33.6312 23.5757ZM22.2582 15.3267H32.0204V5.61328H22.2582V15.3267Z" fill="#FEFEFE"/>
</g>
<defs>
<clipPath id="clip0_478_4688">
<rect width="39" height="39" rx="19.5" fill="white"/>
</clipPath>
</defs>
</svg>
