<svg width="21" height="21" viewBox="0 0 21 21" fill="none" xmlns="http://www.w3.org/2000/svg">
<g clip-path="url(#clip0_478_5000)">
<path d="M12.2938 12.2935L8.30176 8.30146" stroke="#6FA97E" stroke-width="2" stroke-linecap="round" stroke-linejoin="round"/>
<path d="M15.8333 18.1858C15.5214 18.4978 15.0984 18.6731 14.6572 18.6732C14.216 18.6733 13.7929 18.4981 13.4809 18.1862C13.1689 17.8743 12.9936 17.4513 12.9935 17.0101C12.9935 16.569 13.1686 16.1459 13.4805 15.8339L12.011 17.3043C11.699 17.6162 11.2758 17.7915 10.8346 17.7915C10.3933 17.7915 9.97017 17.6162 9.65818 17.3043C9.34618 16.9923 9.1709 16.5691 9.1709 16.1279C9.1709 15.6866 9.34618 15.2635 9.65818 14.9515L14.9509 9.65874C15.2629 9.34674 15.6861 9.17146 16.1273 9.17146C16.5685 9.17146 16.9917 9.34674 17.3037 9.65874C17.6157 9.97074 17.791 10.3939 17.791 10.8351C17.791 11.2764 17.6157 11.6995 17.3037 12.0115L15.8333 13.4811C16.1453 13.1692 16.5684 12.994 17.0096 12.9941C17.4507 12.9942 17.8738 13.1695 18.1857 13.4815C18.4976 13.7935 18.6727 14.2166 18.6727 14.6578C18.6726 15.0989 18.4973 15.522 18.1853 15.8339L15.8333 18.1858Z" stroke="#6FA97E" stroke-width="2" stroke-linecap="round" stroke-linejoin="round"/>
<path d="M18.1985 18.1983L17.0342 17.034" stroke="#6FA97E" stroke-width="2" stroke-linecap="round" stroke-linejoin="round"/>
<path d="M3.56082 3.56096L2.39648 2.39663" stroke="#6FA97E" stroke-width="2" stroke-linecap="round" stroke-linejoin="round"/>
<path d="M5.64363 10.9362C5.33163 11.2482 4.90847 11.4235 4.46723 11.4235C4.026 11.4235 3.60284 11.2482 3.29084 10.9362C2.97884 10.6242 2.80356 10.201 2.80356 9.75978C2.80356 9.31855 2.97884 8.89539 3.29084 8.58339L4.76123 7.11384C4.60674 7.26827 4.42335 7.39076 4.22153 7.47432C4.0197 7.55787 3.80339 7.60086 3.58496 7.60082C3.1438 7.60074 2.72075 7.42542 2.40886 7.11342C2.25443 6.95894 2.13194 6.77554 2.04838 6.57372C1.96482 6.37189 1.92184 6.15559 1.92188 5.93715C1.92195 5.496 2.09728 5.07294 2.40927 4.76105L4.76123 2.4091C5.07312 2.0971 5.49617 1.92178 5.93733 1.9217C6.15576 1.92166 6.37207 1.96465 6.57389 2.0482C6.77572 2.13176 6.95911 2.25425 7.1136 2.40868C7.26808 2.56311 7.39064 2.74646 7.47427 2.94826C7.55789 3.15005 7.60096 3.36634 7.601 3.58478C7.60103 3.80322 7.55805 4.01953 7.47449 4.22135C7.39093 4.42318 7.26844 4.60657 7.11401 4.76105L8.58357 3.29067C8.89557 2.97867 9.31873 2.80339 9.75996 2.80339C10.2012 2.80339 10.6244 2.97867 10.9364 3.29067C11.2484 3.60266 11.4236 4.02583 11.4236 4.46706C11.4236 4.90829 11.2484 5.33145 10.9364 5.64345L5.64363 10.9362Z" stroke="#6FA97E" stroke-width="2" stroke-linecap="round" stroke-linejoin="round"/>
</g>
<defs>
<clipPath id="clip0_478_5000">
<rect width="19.96" height="19.96" fill="white" transform="translate(0.317383 0.317459)"/>
</clipPath>
</defs>
</svg>
