<svg width="16" height="17" viewBox="0 0 16 17" fill="none" xmlns="http://www.w3.org/2000/svg">
<path fill-rule="evenodd" clip-rule="evenodd" d="M8.44385 4.04443L7.17085 6.08243C5.94385 6.23143 4.83085 6.70943 3.83185 7.42943C3.38111 7.75427 2.96463 8.12418 2.58885 8.53343C2.76685 8.80043 3.08385 9.17843 3.54985 9.57043C3.85885 9.82943 4.19585 10.0594 4.56385 10.2554L3.74085 11.5734C3.66132 11.7001 3.59625 11.8353 3.54685 11.9764C1.44585 10.8324 0.651852 9.17143 0.651852 9.17143C0.356852 8.70743 0.398852 7.99443 0.775852 7.58243C0.775852 7.58243 3.39885 4.03243 7.99785 4.03243C8.14885 4.03243 8.29785 4.03643 8.44385 4.04443ZM12.3839 5.25643C14.2359 6.34643 15.2439 7.76943 15.2439 7.76943C15.5969 8.19043 15.6479 8.91643 15.3339 9.35743C15.3339 9.35743 13.4999 13.0324 7.99985 13.0324C7.84685 13.0324 7.69685 13.0294 7.54985 13.0234L8.81485 10.9994C10.3559 10.8714 11.5519 10.3774 12.4779 9.63443C12.9309 9.27143 13.2379 8.92443 13.4109 8.67943C13.4709 8.59443 13.5159 8.52143 13.5439 8.46443C13.5902 8.37141 13.6437 8.28214 13.7039 8.19743C13.4949 8.49143 13.4929 8.75043 13.6619 8.99143L13.6119 8.92443C13.5488 8.83986 13.4821 8.75811 13.4119 8.67943C12.8172 7.99932 12.1173 7.41896 11.3389 6.96043L12.2569 5.49043C12.3049 5.41443 12.3469 5.33543 12.3829 5.25643H12.3839ZM6.02585 13.1814C5.92028 13.3477 5.75351 13.4658 5.56158 13.5102C5.36965 13.5546 5.16796 13.5217 5.00011 13.4186C4.83225 13.3155 4.7117 13.1504 4.6645 12.9592C4.6173 12.7679 4.64724 12.5658 4.74785 12.3964L10.0039 3.83743C10.0546 3.75195 10.1219 3.67742 10.2017 3.61818C10.2816 3.55894 10.3724 3.51616 10.4689 3.49234C10.5655 3.46851 10.6658 3.46412 10.764 3.47942C10.8623 3.49471 10.9565 3.52938 11.0412 3.58142C11.1259 3.63346 11.1994 3.70182 11.2575 3.78253C11.3156 3.86324 11.357 3.95469 11.3794 4.05156C11.4018 4.14843 11.4047 4.24879 11.3879 4.34679C11.3712 4.44479 11.3351 4.53849 11.2819 4.62243L6.02585 13.1824V13.1814Z" fill="#97BBEE"/>
</svg>
