<svg width="16" height="17" viewBox="0 0 16 17" fill="none" xmlns="http://www.w3.org/2000/svg">
<path d="M8.85876 1.0768C8.37689 0.621211 7.62311 0.621211 7.14124 1.0768L1.08685 6.80097C0.71225 7.15515 0.5 7.64792 0.5 8.16343V15.125C0.5 16.1605 1.33946 17 2.375 17H4.25C5.28554 17 6.125 16.1605 6.125 15.125V12C6.125 11.6548 6.40483 11.375 6.75 11.375H9.25C9.59517 11.375 9.875 11.6548 9.875 12V15.125C9.875 16.1605 10.7145 17 11.75 17H13.625C14.6605 17 15.5 16.1605 15.5 15.125V8.16343C15.5 7.64792 15.2878 7.15515 14.9131 6.80097L8.85876 1.0768Z" fill="#1A73E8"/>
</svg>
