<svg width="271" height="295" viewBox="0 0 271 295" fill="none" xmlns="http://www.w3.org/2000/svg">
<path d="M126.277 13.5488C131.407 8.69856 139.387 8.62253 144.606 13.3213L144.852 13.5488L253.982 116.728H253.983C258.935 121.409 261.74 127.923 261.74 134.737V260.22C261.74 273.907 250.643 285.004 236.956 285.004H203.159C189.471 285.004 178.375 273.907 178.375 260.22V203.891C178.374 192.692 169.295 183.613 158.096 183.613H113.033C101.834 183.614 92.7556 192.692 92.7554 203.891V260.22C92.7552 273.907 81.6581 285.004 67.9702 285.004H34.1733C20.4855 285.004 9.38933 273.907 9.38916 260.22V134.737C9.38916 128.136 12.0218 121.817 16.688 117.172L17.146 116.728L126.277 13.5488Z" stroke="#BEBEBE" stroke-width="18.0251"/>
</svg>
