<svg width="361" height="361" viewBox="0 0 361 361" fill="none" xmlns="http://www.w3.org/2000/svg">
<path d="M75.3613 270.627H285.654V300.669C285.654 304.653 284.071 308.473 281.254 311.29C278.437 314.107 274.617 315.69 270.633 315.69H90.3822C86.3984 315.69 82.5778 314.107 79.7608 311.29C76.9439 308.473 75.3613 304.653 75.3613 300.669V270.627Z" fill="#0D60D8" stroke="#0D60D8" stroke-width="18.0251"/>
<path d="M312.532 139.637L288.799 56.2714C287.891 53.0224 285.915 50.1738 283.19 48.1846C280.465 46.1954 277.15 45.1815 273.778 45.3062H86.6181C83.2467 45.1815 79.9315 46.1954 77.2066 48.1846C74.4817 50.1738 72.5058 53.0224 71.5972 56.2714L48.465 139.637C47.0052 144.534 46.0489 149.567 45.6111 154.658C44.939 159.444 45.2359 164.315 46.4842 168.984C47.7324 173.652 49.9065 178.022 52.8772 181.833C55.8478 185.645 59.5545 188.82 63.7767 191.17C67.999 193.521 72.6507 194.998 77.4553 195.515C82.0307 195.739 86.6038 195.031 90.8969 193.433C95.19 191.835 99.1134 189.381 102.429 186.22C105.744 183.059 108.383 179.257 110.183 175.045C111.984 170.833 112.91 166.299 112.905 161.718C112.905 170.682 116.465 179.278 122.804 185.616C129.142 191.954 137.738 195.515 146.702 195.515C155.665 195.515 164.262 191.954 170.6 185.616C176.938 179.278 180.499 170.682 180.499 161.718C180.499 170.682 184.059 179.278 190.398 185.616C196.736 191.954 205.332 195.515 214.296 195.515C223.259 195.515 231.856 191.954 238.194 185.616C244.532 179.278 248.093 170.682 248.093 161.718C248.087 166.299 249.013 170.833 250.814 175.045C252.615 179.257 255.253 183.059 258.568 186.22C261.884 189.381 265.807 191.835 270.1 193.433C274.394 195.031 278.967 195.739 283.542 195.515C288.359 195.034 293.029 193.589 297.275 191.264C301.521 188.94 305.255 185.784 308.255 181.985C311.255 178.186 313.459 173.822 314.735 169.153C316.012 164.484 316.336 159.605 315.687 154.808C315.161 149.656 314.104 144.572 312.532 139.637Z" fill="#0D60D8" stroke="#0D60D8" stroke-width="18.0251"/>
<path d="M285.645 195.515V300.661C285.645 304.645 284.062 308.466 281.245 311.283C278.428 314.1 274.608 315.682 270.624 315.682H90.3733C86.3895 315.682 82.5689 314.1 79.7519 311.283C76.935 308.466 75.3524 304.645 75.3524 300.661V195.515M312.532 139.637L288.799 56.2714C287.891 53.0224 285.915 50.1738 283.19 48.1846C280.465 46.1954 277.15 45.1815 273.778 45.3062H86.6181C83.2467 45.1815 79.9315 46.1954 77.2066 48.1846C74.4817 50.1738 72.5058 53.0224 71.5972 56.2714L48.465 139.637C47.0052 144.534 46.0489 149.567 45.6111 154.658C44.939 159.444 45.2359 164.315 46.4842 168.984C47.7324 173.652 49.9065 178.022 52.8772 181.833C55.8478 185.645 59.5545 188.82 63.7767 191.17C67.999 193.521 72.6507 194.998 77.4553 195.515C82.0307 195.739 86.6038 195.031 90.8969 193.433C95.19 191.835 99.1134 189.381 102.429 186.22C105.744 183.059 108.383 179.257 110.183 175.045C111.984 170.833 112.91 166.299 112.905 161.718C112.905 170.682 116.465 179.278 122.804 185.616C129.142 191.954 137.738 195.515 146.702 195.515C155.665 195.515 164.262 191.954 170.6 185.616C176.938 179.278 180.499 170.682 180.499 161.718C180.499 170.682 184.059 179.278 190.398 185.616C196.736 191.954 205.332 195.515 214.296 195.515C223.259 195.515 231.856 191.954 238.194 185.616C244.532 179.278 248.093 170.682 248.093 161.718C248.087 166.299 249.013 170.833 250.814 175.045C252.615 179.257 255.253 183.059 258.568 186.22C261.884 189.381 265.807 191.835 270.1 193.433C274.394 195.031 278.967 195.739 283.542 195.515C288.359 195.034 293.029 193.589 297.275 191.264C301.521 188.939 305.255 185.784 308.255 181.985C311.255 178.186 313.459 173.822 314.735 169.153C316.012 164.484 316.336 159.605 315.687 154.808C315.161 149.656 314.104 144.572 312.532 139.637Z" stroke="#0D60D8" stroke-width="18.0251" stroke-linecap="round" stroke-linejoin="round"/>
</svg>
