<svg width="17" height="17" viewBox="0 0 17 17" fill="none" xmlns="http://www.w3.org/2000/svg">
<path d="M13.8332 9.33341V15.1667C13.8332 15.3878 13.7454 15.5997 13.5891 15.756C13.4328 15.9123 13.2209 16.0001 12.9998 16.0001H2.99984C2.77882 16.0001 2.56686 15.9123 2.41058 15.756C2.2543 15.5997 2.16651 15.3878 2.16651 15.1667V9.33341M15.3248 6.23341L14.0082 1.60841C13.9578 1.42816 13.8481 1.27013 13.697 1.15977C13.5458 1.04942 13.3619 0.993166 13.1748 1.00008H2.79151C2.60447 0.993166 2.42054 1.04942 2.26937 1.15977C2.1182 1.27013 2.00858 1.42816 1.95817 1.60841L0.674838 6.23341C0.59385 6.50508 0.540797 6.78431 0.516505 7.06675C0.479222 7.33223 0.495695 7.60251 0.564945 7.8615C0.634195 8.12049 0.754808 8.36292 0.919616 8.57437C1.08442 8.78582 1.29006 8.96198 1.5243 9.09238C1.75855 9.22277 2.01662 9.30474 2.28317 9.33341C2.537 9.34584 2.79071 9.30653 3.02889 9.21788C3.26706 9.12924 3.48472 8.99309 3.66866 8.81773C3.8526 8.64237 3.99897 8.43144 4.09887 8.19777C4.19878 7.96409 4.25014 7.71255 4.24984 7.45841C4.24984 7.9557 4.44738 8.43261 4.79901 8.78424C5.15064 9.13587 5.62756 9.33341 6.12484 9.33341C6.62212 9.33341 7.09903 9.13587 7.45066 8.78424C7.80229 8.43261 7.99984 7.9557 7.99984 7.45841C7.99984 7.9557 8.19738 8.43261 8.54901 8.78424C8.90064 9.13587 9.37756 9.33341 9.87484 9.33341C10.3721 9.33341 10.849 9.13587 11.2007 8.78424C11.5523 8.43261 11.7498 7.9557 11.7498 7.45841C11.7495 7.71255 11.8009 7.96409 11.9008 8.19777C12.0007 8.43144 12.1471 8.64237 12.331 8.81773C12.515 8.99309 12.7326 9.12924 12.9708 9.21788C13.209 9.30653 13.4627 9.34584 13.7165 9.33341C13.9837 9.30675 14.2428 9.22654 14.4784 9.09758C14.7139 8.96861 14.9211 8.79353 15.0875 8.58278C15.2539 8.37202 15.3762 8.12991 15.4471 7.87088C15.5179 7.61184 15.5359 7.3412 15.4998 7.07508C15.4707 6.78924 15.412 6.50719 15.3248 6.23341Z" stroke="#BEBEBE" stroke-linecap="round" stroke-linejoin="round"/>
</svg>
