<svg width="51" height="50" viewBox="0 0 51 50" fill="none" xmlns="http://www.w3.org/2000/svg">
<g clip-path="url(#clip0_478_4887)">
<path d="M32.3771 11.7572H18.6349C18.3217 11.7575 18.0215 11.8801 17.8 12.0981C17.5786 12.3161 17.454 12.6116 17.4536 12.9198V42.9822L17.2962 43.0295L13.925 44.0456C13.7652 44.0936 13.5926 44.0772 13.4451 44C13.2976 43.9229 13.1873 43.7912 13.1383 43.6341L3.1105 11.3936C3.0617 11.2364 3.07833 11.0665 3.15674 10.9213C3.23515 10.7761 3.36892 10.6675 3.52865 10.6193L8.72367 9.0536L23.7842 4.51614L28.9792 2.95043C29.0582 2.92649 29.1413 2.91812 29.2237 2.92581C29.306 2.9335 29.386 2.9571 29.4591 2.99525C29.5322 3.03341 29.5969 3.08538 29.6495 3.14818C29.7022 3.21098 29.7417 3.28338 29.7659 3.36124L32.3291 11.6021L32.3771 11.7572Z" fill="#505050"/>
<path d="M35.3761 11.6027L32.2869 1.6705C32.2355 1.50501 32.1514 1.35111 32.0396 1.2176C31.9277 1.08408 31.7903 0.973571 31.635 0.892375C31.4797 0.81118 31.3098 0.760892 31.1347 0.744386C30.9597 0.72788 30.7831 0.74548 30.615 0.796179L23.3112 2.9967L8.25145 7.53493L0.947576 9.73622C0.608277 9.83877 0.324177 10.0696 0.157636 10.3782C-0.00890445 10.6867 -0.0442801 11.0476 0.059276 11.3818L10.6178 45.3259C10.7019 45.5956 10.8717 45.8317 11.1021 45.9995C11.3326 46.1673 11.6116 46.258 11.8983 46.2583C12.0309 46.2584 12.1629 46.2388 12.2896 46.2002L17.2964 44.6918L17.4539 44.6438V44.4818L17.2964 44.5291L12.2432 46.0521C11.9437 46.142 11.6202 46.1113 11.3437 45.9667C11.0672 45.8221 10.8602 45.5755 10.7682 45.2809L0.210504 11.336C0.164916 11.1901 0.149028 11.0367 0.163748 10.8847C0.178468 10.7327 0.223506 10.585 0.296286 10.4502C0.369067 10.3153 0.46816 10.1959 0.587888 10.0988C0.707616 10.0017 0.845628 9.9288 0.994023 9.88427L8.29789 7.68297L23.3577 3.14552L30.6615 0.944225C30.7741 0.910415 30.8911 0.893176 31.0088 0.893068C31.2613 0.893626 31.5071 0.973769 31.71 1.12176C31.9129 1.26974 32.0624 1.4778 32.1365 1.71545L35.2116 11.6027L35.2604 11.7577H35.4242L35.3761 11.6027Z" fill="black"/>
<path d="M9.66099 10.6447C9.50922 10.6446 9.36147 10.5966 9.23942 10.5078C9.11738 10.419 9.02746 10.294 8.98287 10.1512L7.96857 6.8902C7.94131 6.8026 7.93185 6.71058 7.94073 6.61938C7.94961 6.52819 7.97666 6.43961 8.02032 6.35871C8.06399 6.2778 8.12342 6.20616 8.19522 6.14786C8.26702 6.08957 8.34978 6.04577 8.43879 6.01896L22.2936 1.84396C22.4733 1.78998 22.6675 1.80839 22.8335 1.89516C22.9994 1.98192 23.1236 2.12995 23.1788 2.30676L24.1931 5.56779C24.2479 5.7447 24.2292 5.93578 24.141 6.09912C24.0529 6.26246 23.9025 6.38471 23.7229 6.43906L9.86805 10.6141C9.80096 10.6343 9.73117 10.6446 9.66099 10.6447Z" fill="black"/>
<path d="M14.9744 4.22171C15.8442 4.22171 16.5493 3.52766 16.5493 2.67151C16.5493 1.81535 15.8442 1.1213 14.9744 1.1213C14.1045 1.1213 13.3994 1.81535 13.3994 2.67151C13.3994 3.52766 14.1045 4.22171 14.9744 4.22171Z" fill="black"/>
<path d="M14.9739 3.65311C15.5247 3.65311 15.9712 3.21362 15.9712 2.67147C15.9712 2.12933 15.5247 1.68983 14.9739 1.68983C14.4231 1.68983 13.9766 2.12933 13.9766 2.67147C13.9766 3.21362 14.4231 3.65311 14.9739 3.65311Z" fill="white"/>
<path d="M47.4561 45.8617H20.8393C20.6618 45.8615 20.4917 45.792 20.3662 45.6685C20.2407 45.545 20.1701 45.3776 20.1699 45.2029V13.8112C20.1701 13.6365 20.2407 13.4691 20.3662 13.3455C20.4917 13.222 20.6618 13.1526 20.8393 13.1524H47.4561C47.6335 13.1526 47.8037 13.222 47.9292 13.3455C48.0546 13.4691 48.1252 13.6365 48.1254 13.8112V45.2029C48.1252 45.3776 48.0546 45.545 47.9292 45.6685C47.8037 45.792 47.6335 45.8615 47.4561 45.8617Z" fill="#F5F3F3"/>
<path d="M35.211 11.6021H18.6346C18.2797 11.6026 17.9395 11.7416 17.6886 11.9886C17.4376 12.2356 17.2964 12.5705 17.2959 12.9198V44.5285L17.4534 44.4812V12.9198C17.4538 12.6116 17.5783 12.316 17.7998 12.0981C18.0212 11.8801 18.3215 11.7575 18.6346 11.7571H35.2599L35.211 11.6021ZM49.6613 11.6021H18.6346C18.2797 11.6026 17.9395 11.7416 17.6886 11.9886C17.4376 12.2356 17.2964 12.5705 17.2959 12.9198V48.4195C17.2964 48.7688 17.4376 49.1037 17.6886 49.3507C17.9395 49.5977 18.2797 49.7367 18.6346 49.7372H49.6613C50.0162 49.7367 50.3564 49.5977 50.6073 49.3507C50.8583 49.1037 50.9995 48.7688 51 48.4195V12.9198C50.9995 12.5705 50.8583 12.2356 50.6073 11.9886C50.3564 11.7416 50.0162 11.6026 49.6613 11.6021ZM50.8425 48.4195C50.8421 48.7278 50.7175 49.0233 50.4961 49.2412C50.2747 49.4592 49.9744 49.5818 49.6613 49.5822H18.6346C18.3215 49.5818 18.0212 49.4592 17.7998 49.2412C17.5783 49.0233 17.4538 48.7278 17.4534 48.4195V12.9198C17.4538 12.6116 17.5783 12.316 17.7998 12.0981C18.0212 11.8801 18.3215 11.7575 18.6346 11.7571H49.6613C49.9744 11.7575 50.2747 11.8801 50.4961 12.0981C50.7175 12.316 50.8421 12.6116 50.8425 12.9198V48.4195Z" fill="black"/>
<path d="M41.3927 15.0126H26.9031C26.7152 15.0124 26.535 14.9388 26.4021 14.8081C26.2693 14.6773 26.1945 14.5 26.1943 14.315V10.9046C26.1945 10.7196 26.2693 10.5423 26.4022 10.4115C26.535 10.2807 26.7152 10.2072 26.9031 10.207H41.3927C41.5806 10.2072 41.7607 10.2807 41.8936 10.4115C42.0265 10.5423 42.1012 10.7196 42.1014 10.9046V14.315C42.1012 14.5 42.0265 14.6773 41.8936 14.8081C41.7607 14.9388 41.5806 15.0124 41.3927 15.0126Z" fill="black"/>
<path d="M34.1482 10.4395C35.018 10.4395 35.7232 9.74541 35.7232 8.88926C35.7232 8.0331 35.018 7.33905 34.1482 7.33905C33.2784 7.33905 32.5732 8.0331 32.5732 8.88926C32.5732 9.74541 33.2784 10.4395 34.1482 10.4395Z" fill="black"/>
<path d="M34.1478 9.8335C34.6776 9.8335 35.1071 9.41076 35.1071 8.88928C35.1071 8.3678 34.6776 7.94506 34.1478 7.94506C33.618 7.94506 33.1885 8.3678 33.1885 8.88928C33.1885 9.41076 33.618 9.8335 34.1478 9.8335Z" fill="white"/>
</g>
<defs>
<clipPath id="clip0_478_4887">
<rect width="51" height="49" fill="white" transform="translate(0 0.737206)"/>
</clipPath>
</defs>
</svg>
