<svg width="16" height="17" viewBox="0 0 16 17" fill="none" xmlns="http://www.w3.org/2000/svg">
<path d="M0.5 13.5H15.5M10.5 13.5C10.5 14.163 10.2366 14.7989 9.76777 15.2678C9.29893 15.7366 8.66304 16 8 16C7.33696 16 6.70107 15.7366 6.23223 15.2678C5.76339 14.7989 5.5 14.163 5.5 13.5M13.8333 13.5H2.16667V6.83333C2.16667 5.28624 2.78125 3.80251 3.87521 2.70854C4.96917 1.61458 6.4529 1 8 1C9.5471 1 11.0308 1.61458 12.1248 2.70854C13.2188 3.80251 13.8333 5.28624 13.8333 6.83333V13.5Z" stroke="#BEBEBE" stroke-linecap="round" stroke-linejoin="round"/>
</svg>
