<svg width="361" height="361" viewBox="0 0 361 361" fill="none" xmlns="http://www.w3.org/2000/svg">
<path d="M270.621 30.5469H90.3699C82.4023 30.5469 74.7611 33.712 69.1272 39.3459C63.4932 44.9798 60.3281 52.6211 60.3281 60.5887V315.944C60.3301 318.423 60.9458 320.863 62.1202 323.047C63.2946 325.23 64.9911 327.089 67.0586 328.457C69.126 329.826 71.5 330.661 73.9687 330.889C76.4375 331.117 78.9242 330.73 81.2072 329.763L111.249 317.296L140.389 329.763C142.243 330.548 144.235 330.953 146.248 330.953C148.26 330.953 150.252 330.548 152.106 329.763L180.495 317.296L209.636 329.763C211.489 330.548 213.481 330.953 215.494 330.953C217.507 330.953 219.499 330.548 221.352 329.763L250.493 317.296L279.633 329.763C281.532 330.572 283.577 330.981 285.642 330.965C288.586 330.942 291.459 330.054 293.903 328.411C295.969 327.05 297.667 325.2 298.847 323.025C300.026 320.85 300.65 318.418 300.662 315.944V60.5887C300.662 52.6211 297.497 44.9798 291.863 39.3459C286.229 33.712 278.588 30.5469 270.621 30.5469Z" fill="#1A73E8"/>
<path d="M240.579 240.834H120.412C116.428 240.834 112.607 239.251 109.79 236.434C106.973 233.617 105.391 229.797 105.391 225.813C105.391 221.829 106.973 218.009 109.79 215.192C112.607 212.375 116.428 210.792 120.412 210.792H240.579C244.562 210.792 248.383 212.375 251.2 215.192C254.017 218.009 255.6 221.829 255.6 225.813C255.6 229.797 254.017 233.617 251.2 236.434C248.383 239.251 244.562 240.834 240.579 240.834ZM240.579 180.75H120.412C116.428 180.75 112.607 179.168 109.79 176.351C106.973 173.534 105.391 169.713 105.391 165.729C105.391 161.746 106.973 157.925 109.79 155.108C112.607 152.291 116.428 150.709 120.412 150.709H240.579C244.562 150.709 248.383 152.291 251.2 155.108C254.017 157.925 255.6 161.746 255.6 165.729C255.6 169.713 254.017 173.534 251.2 176.351C248.383 179.168 244.562 180.75 240.579 180.75ZM195.516 120.667H120.412C116.428 120.667 112.607 119.084 109.79 116.267C106.973 113.45 105.391 109.63 105.391 105.646C105.391 101.662 106.973 97.8415 109.79 95.0245C112.607 92.2076 116.428 90.625 120.412 90.625H195.516C199.5 90.625 203.32 92.2076 206.137 95.0245C208.954 97.8415 210.537 101.662 210.537 105.646C210.537 109.63 208.954 113.45 206.137 116.267C203.32 119.084 199.5 120.667 195.516 120.667Z" fill="#1A73E8"/>
</svg>
