<svg width="16" height="17" viewBox="0 0 16 17" fill="none" xmlns="http://www.w3.org/2000/svg">
<path fill-rule="evenodd" clip-rule="evenodd" d="M2.06476 11.4359L8.35125 5.14943C8.54865 4.95203 8.86736 4.95197 9.06393 5.14848L11.3521 7.43587C11.5467 7.63043 11.5483 7.95142 11.3513 8.14848L5.06476 14.4359C4.86736 14.6333 4.48621 14.7927 4.21262 14.7927H2.2034C1.92376 14.7927 1.70801 14.5709 1.70801 14.2973V12.2881C1.70801 12.0084 1.86773 11.6329 2.06476 11.4359ZM12.419 2.50403L13.9976 4.08212C14.3876 4.47202 14.3904 5.11113 13.9977 5.50347L13.0564 6.44387C12.8648 6.63522 12.5485 6.63278 12.3519 6.43627L10.0637 4.14888C9.8691 3.95431 9.86378 3.6371 10.0562 3.4447L10.9971 2.50383C11.3953 2.10557 12.0262 2.11138 12.419 2.50403Z" fill="#8C8C8C"/>
</svg>
