<svg width="21" height="21" viewBox="0 0 21 21" fill="none" xmlns="http://www.w3.org/2000/svg">
<g clip-path="url(#clip0_478_5021)">
<path d="M15.2879 1.98079H5.30786C4.38923 1.98079 3.64453 2.72549 3.64453 3.64412V16.9508C3.64453 17.8694 4.38923 18.6141 5.30786 18.6141H15.2879C16.2065 18.6141 16.9512 17.8694 16.9512 16.9508V3.64412C16.9512 2.72549 16.2065 1.98079 15.2879 1.98079Z" stroke="#F8CD55" stroke-width="2" stroke-linecap="round" stroke-linejoin="round"/>
<path d="M6.9707 5.30746H13.624" stroke="#F8CD55" stroke-width="2" stroke-linecap="round" stroke-linejoin="round"/>
<path d="M13.624 11.9608V15.2875" stroke="#F8CD55" stroke-width="2" stroke-linecap="round" stroke-linejoin="round"/>
<path d="M13.624 8.63412H13.6323" stroke="#F8CD55" stroke-width="2" stroke-linecap="round" stroke-linejoin="round"/>
<path d="M10.2979 8.63412H10.3062" stroke="#F8CD55" stroke-width="2" stroke-linecap="round" stroke-linejoin="round"/>
<path d="M6.9707 8.63412H6.97902" stroke="#F8CD55" stroke-width="2" stroke-linecap="round" stroke-linejoin="round"/>
<path d="M10.2979 11.9608H10.3062" stroke="#F8CD55" stroke-width="2" stroke-linecap="round" stroke-linejoin="round"/>
<path d="M6.9707 11.9608H6.97902" stroke="#F8CD55" stroke-width="2" stroke-linecap="round" stroke-linejoin="round"/>
<path d="M10.2979 15.2875H10.3062" stroke="#F8CD55" stroke-width="2" stroke-linecap="round" stroke-linejoin="round"/>
<path d="M6.9707 15.2875H6.97902" stroke="#F8CD55" stroke-width="2" stroke-linecap="round" stroke-linejoin="round"/>
</g>
<defs>
<clipPath id="clip0_478_5021">
<rect width="19.96" height="19.96" fill="white" transform="translate(0.317383 0.317459)"/>
</clipPath>
</defs>
</svg>
