<svg width="24" height="25" viewBox="0 0 24 25" fill="none" xmlns="http://www.w3.org/2000/svg">
<path d="M12.1401 10.6449C12.4224 10.4332 12.4901 10.0379 12.2944 9.74434C12.0617 9.3953 11.5678 9.34639 11.2712 9.64303L10.7071 10.2071C10.3166 10.5976 9.68342 10.5976 9.29289 10.2071C8.90237 9.81658 8.90237 9.18342 9.29289 8.79289L9.85697 8.22881C11.046 7.03975 13.0257 7.23577 13.9585 8.63494C14.743 9.8117 14.4715 11.3963 13.3401 12.2449L13.2916 12.2813C13.108 12.419 13 12.635 13 12.8645L13 13C13 13.5523 12.5523 14 12 14C11.4477 14 11 13.5523 11 13L11 12.8645C11 12.0055 11.4044 11.1967 12.0916 10.6813L12.1401 10.6449Z" fill="#BFBFBF"/>
<path d="M11 16C11 16.5523 11.4477 17 12 17C12.5523 17 13 16.5523 13 16C13 15.4477 12.5523 15 12 15C11.4477 15 11 15.4477 11 16Z" fill="#BFBFBF"/>
<path fill-rule="evenodd" clip-rule="evenodd" d="M2 12.5C2 6.97715 6.47715 2.5 12 2.5C17.5228 2.5 22 6.97715 22 12.5C22 18.0228 17.5228 22.5 12 22.5C6.47715 22.5 2 18.0228 2 12.5ZM12 4.5C7.58172 4.5 4 8.08172 4 12.5C4 16.9183 7.58172 20.5 12 20.5C16.4183 20.5 20 16.9183 20 12.5C20 8.08172 16.4183 4.5 12 4.5Z" fill="#BFBFBF"/>
</svg>
