<svg width="56" height="56" viewBox="0 0 56 56" fill="none" xmlns="http://www.w3.org/2000/svg">
<rect width="55.6601" height="54.2686" transform="translate(0 0.865723)" fill="white"/>
<path d="M25.5781 24.6172H25.5881" stroke="black" stroke-width="1.82702" stroke-linecap="round" stroke-linejoin="round"/>
<path d="M27.4053 28.271H27.4153" stroke="black" stroke-width="1.82702" stroke-linecap="round" stroke-linejoin="round"/>
<path d="M29.2324 24.6172H29.2424" stroke="black" stroke-width="1.82702" stroke-linecap="round" stroke-linejoin="round"/>
<path d="M31.0596 28.271H31.0696" stroke="black" stroke-width="1.82702" stroke-linecap="round" stroke-linejoin="round"/>
<path d="M32.8867 24.6172H32.8967" stroke="black" stroke-width="1.82702" stroke-linecap="round" stroke-linejoin="round"/>
<path d="M21.9248 24.6172H21.9348" stroke="black" stroke-width="1.82702" stroke-linecap="round" stroke-linejoin="round"/>
<path d="M22.8379 31.9248H31.973" stroke="black" stroke-width="1.82702" stroke-linecap="round" stroke-linejoin="round"/>
<path d="M23.752 28.271H23.762" stroke="black" stroke-width="1.82702" stroke-linecap="round" stroke-linejoin="round"/>
<path d="M34.7137 20.9629H20.0975C19.0885 20.9629 18.2705 21.7809 18.2705 22.7899V33.752C18.2705 34.7611 19.0885 35.5791 20.0975 35.5791H34.7137C35.7227 35.5791 36.5407 34.7611 36.5407 33.752V22.7899C36.5407 21.7809 35.7227 20.9629 34.7137 20.9629Z" stroke="black" stroke-width="1.82702" stroke-linecap="round" stroke-linejoin="round"/>
</svg>
