<svg width="20" height="20" viewBox="0 0 20 20" fill="none" xmlns="http://www.w3.org/2000/svg">
<path d="M8.3501 14.6C8.73343 15.0917 9.33343 15.4167 10.0001 15.4167C11.1501 15.4167 12.0834 14.4833 12.0834 13.3333C12.0834 12.8583 11.9251 12.4167 11.6584 12.0667" stroke="#737375" stroke-width="1.5" stroke-linecap="round" stroke-linejoin="round"/>
<path d="M2.34984 17.3334C1.8415 16.7 1.6665 15.6917 1.6665 14.1667V12.5C1.6665 9.16671 2.49984 8.33337 5.83317 8.33337H14.1665C14.4665 8.33337 14.7415 8.34171 14.9998 8.35837C17.6415 8.50837 18.3332 9.46671 18.3332 12.5V14.1667C18.3332 17.5 17.4998 18.3334 14.1665 18.3334H5.83317C5.53317 18.3334 5.25817 18.325 4.99984 18.3084" stroke="#737375" stroke-width="1.5" stroke-linecap="round" stroke-linejoin="round"/>
<path d="M5 8.33329V6.66663C5 3.90829 5.83333 1.66663 10 1.66663C13.4583 1.66663 14.6167 2.81663 14.9167 4.63329" stroke="#737375" stroke-width="1.5" stroke-linecap="round" stroke-linejoin="round"/>
<path d="M18.3332 1.66663L1.6665 18.3333" stroke="#737375" stroke-width="1.5" stroke-linecap="round" stroke-linejoin="round"/>
</svg>
