<svg width="18" height="19" viewBox="0 0 18 19" fill="none" xmlns="http://www.w3.org/2000/svg">
<path d="M7.84966 10.65L10.3497 8.14999M2.07466 6.79166L15.3413 2.04999C15.4964 1.97724 15.6702 1.95407 15.839 1.98363C16.0077 2.01319 16.1633 2.09406 16.2844 2.21521C16.4056 2.33636 16.4865 2.49191 16.516 2.66067C16.5456 2.82943 16.5224 3.00321 16.4497 3.15833L11.708 16.425C11.666 16.6091 11.5628 16.7735 11.4152 16.8913C11.2676 17.009 11.0843 17.0732 10.8955 17.0732C10.7067 17.0732 10.5234 17.009 10.3758 16.8913C10.2282 16.7735 10.125 16.6091 10.083 16.425L7.99133 10.9917C7.94974 10.8768 7.8834 10.7724 7.79699 10.686C7.71058 10.5996 7.60623 10.5332 7.49133 10.4917L2.058 8.41666C1.87428 8.37285 1.7109 8.26793 1.59462 8.11911C1.47835 7.97028 1.41608 7.78637 1.41801 7.59751C1.41995 7.40866 1.48598 7.22606 1.60528 7.07965C1.72459 6.93324 1.89009 6.83169 2.07466 6.79166Z" stroke="#BEBEBE" stroke-width="2" stroke-linecap="round" stroke-linejoin="round"/>
</svg>
