<svg width="361" height="361" viewBox="0 0 361 361" fill="none" xmlns="http://www.w3.org/2000/svg">
<path d="M328.906 71.5482L243.587 310.681C241.546 316.62 237.695 321.77 232.576 325.407C227.457 329.044 221.327 330.986 215.047 330.959C208.84 331.03 202.763 329.176 197.653 325.652C192.542 322.128 188.649 317.108 186.507 311.282L154.663 228.366L177.795 205.234L215.197 167.832C218.026 165.004 219.615 161.167 219.615 157.167C219.615 153.167 218.026 149.331 215.197 146.502C212.369 143.674 208.533 142.085 204.533 142.085C200.532 142.085 196.696 143.674 193.868 146.502L156.466 183.904L132.733 207.187L49.9676 175.192C43.7869 173.331 38.3704 169.528 34.5201 164.347C30.6699 159.166 28.5908 152.882 28.5908 146.427C28.5908 139.972 30.6699 133.689 34.5201 128.508C38.3704 123.327 43.7869 119.524 49.9676 117.662L289.701 32.3437C295.183 30.0913 301.209 29.5109 307.021 30.6756C312.832 31.8402 318.169 34.6979 322.36 38.8889C326.551 43.0799 329.409 48.417 330.574 54.2284C331.738 60.0398 331.158 66.0659 328.906 71.5482Z" fill="#1A73E8"/>
</svg>
