<svg width="81" height="80" viewBox="0 0 81 80" fill="none" xmlns="http://www.w3.org/2000/svg">
<path d="M35.4662 7.43333L18.8329 13.7C14.9995 15.1333 11.8662 19.6667 11.8662 23.7333V48.5C11.8662 52.4333 14.4662 57.6 17.6329 59.9667L31.9662 70.6667C36.6662 74.2 44.3995 74.2 49.0995 70.6667L63.4329 59.9667C66.5995 57.6 69.1995 52.4333 69.1995 48.5V23.7333C69.1995 19.6333 66.0662 15.1 62.2329 13.6667L45.5995 7.43333C42.7662 6.39999 38.2329 6.39999 35.4662 7.43333Z" stroke="#0D60D8" stroke-width="1.5" stroke-linecap="round" stroke-linejoin="round"/>
<path d="M40.4997 41.6667C44.1816 41.6667 47.1663 38.6819 47.1663 35C47.1663 31.3181 44.1816 28.3334 40.4997 28.3334C36.8178 28.3334 33.833 31.3181 33.833 35C33.833 38.6819 36.8178 41.6667 40.4997 41.6667Z" stroke="#0D60D8" stroke-width="1.5" stroke-miterlimit="10" stroke-linecap="round" stroke-linejoin="round"/>
<path d="M40.5 41.6666V51.6666" stroke="#0D60D8" stroke-width="1.5" stroke-miterlimit="10" stroke-linecap="round" stroke-linejoin="round"/>
</svg>
