<svg width="21" height="24" viewBox="0 0 21 24" fill="none" xmlns="http://www.w3.org/2000/svg">
<path d="M0.603516 23.9655L4.77859 9.88838L12.2749 18.9307L0.603516 23.9655ZM11.4787 13.9627L10.7832 13.1251L16.7302 5.95165C17.2492 5.32558 17.8815 5.01255 18.6272 5.01255C19.3729 5.01255 20.0056 5.32558 20.5254 5.95165L20.934 6.44591L20.2818 7.28348L19.8731 6.78922C19.5298 6.37511 19.1219 6.16805 18.6494 6.16805C18.1761 6.16805 17.7678 6.37511 17.4245 6.78922L11.4787 13.9627ZM7.81522 9.54374L7.12085 8.70616L7.78532 7.90465C8.18547 7.42197 8.38555 6.8382 8.38555 6.15336C8.38555 5.46852 8.18547 4.88431 7.78532 4.40073L7.10756 3.58453L7.80193 2.74562L8.47968 3.56315C9.07032 4.2756 9.36564 5.13901 9.36564 6.15336C9.36564 7.16771 9.07032 8.03067 8.47968 8.74223L7.81522 9.54374ZM9.64693 11.7532L8.95256 10.9156L12.6836 6.41385C13.0269 5.99974 13.1985 5.5077 13.1985 4.93774C13.1985 4.36778 13.0269 3.8753 12.6836 3.46029L11.1664 1.63152L11.8618 0.793945L13.3779 2.62405C13.9117 3.26704 14.1786 4.03827 14.1786 4.93774C14.1786 5.83721 13.9117 6.60888 13.3779 7.25276L9.64693 11.7532ZM13.3093 16.1722L12.6149 15.3346L13.4931 14.2753C14.0978 13.5459 14.8294 13.1812 15.6881 13.1812C16.5467 13.1812 17.2787 13.5464 17.8841 14.2766L18.7612 15.3346L18.068 16.1722L17.1898 15.1129C16.7756 14.6133 16.275 14.3635 15.6881 14.3635C15.1011 14.3635 14.6009 14.6133 14.1875 15.1129L13.3093 16.1722Z" fill="#0D60D8"/>
</svg>
