<svg width="20" height="20" viewBox="0 0 20 20" fill="none" xmlns="http://www.w3.org/2000/svg">
<path d="M13.333 10.8333H15.4163C15.7479 10.8333 16.0658 10.7016 16.3002 10.4672C16.5346 10.2328 16.6663 9.91486 16.6663 9.58334C16.6663 9.25182 16.5346 8.93388 16.3002 8.69946C16.0658 8.46504 15.7479 8.33334 15.4163 8.33334H14.583C14.2515 8.33334 13.9335 8.20165 13.6991 7.96723C13.4647 7.73281 13.333 7.41486 13.333 7.08334C13.333 6.75182 13.4647 6.43388 13.6991 6.19946C13.9335 5.96504 14.2515 5.83334 14.583 5.83334H16.6663" stroke="#0D60D8" stroke-width="0.5" stroke-linecap="round" stroke-linejoin="round"/>
<path d="M11.6663 2.5H4.16634C3.94533 2.5 3.73337 2.5878 3.57709 2.74408C3.42081 2.90036 3.33301 3.11232 3.33301 3.33333V17.5L5.28301 16.6667L7.22467 17.5L9.16634 16.6667L11.108 17.5L13.0497 16.6667L14.9997 17.5V15" stroke="#0D60D8" stroke-width="0.5" stroke-linecap="round" stroke-linejoin="round"/>
<path d="M15.0003 5.83333V5M15.0003 11.6667V10.8333M10.0003 12.5H6.66699M10.0003 9.16667H6.66699" stroke="#0D60D8" stroke-width="0.5" stroke-linecap="round" stroke-linejoin="round"/>
</svg>
