<svg width="21" height="21" viewBox="0 0 21 21" fill="none" xmlns="http://www.w3.org/2000/svg">
<g clip-path="url(#clip0_478_4987)">
<path d="M8.63379 1.98079H11.9605" stroke="#408AEC" stroke-width="2" stroke-linecap="round" stroke-linejoin="round"/>
<path d="M17.7825 6.97079L16.1192 8.63412L14.8717 5.55696C14.754 5.24204 14.5437 4.97016 14.2685 4.77715C13.9932 4.58414 13.6659 4.47908 13.3298 4.47579H7.3035C6.9646 4.46801 6.63141 4.56396 6.34855 4.7508C6.0657 4.93763 5.84668 5.20643 5.72084 5.5212L4.47583 8.63412L2.8125 6.97079" stroke="#408AEC" stroke-width="2" stroke-linecap="round" stroke-linejoin="round"/>
<path d="M6.13867 11.9608H6.14699" stroke="#408AEC" stroke-width="2" stroke-linecap="round" stroke-linejoin="round"/>
<path d="M14.4561 11.9608H14.4644" stroke="#408AEC" stroke-width="2" stroke-linecap="round" stroke-linejoin="round"/>
<path d="M16.1192 8.63412H4.47583C3.5572 8.63412 2.8125 9.37882 2.8125 10.2975V13.6241C2.8125 14.5428 3.5572 15.2875 4.47583 15.2875H16.1192C17.0378 15.2875 17.7825 14.5428 17.7825 13.6241V10.2975C17.7825 9.37882 17.0378 8.63412 16.1192 8.63412Z" stroke="#408AEC" stroke-width="2" stroke-linecap="round" stroke-linejoin="round"/>
<path d="M4.47559 15.2875V16.9508" stroke="#408AEC" stroke-width="2" stroke-linecap="round" stroke-linejoin="round"/>
<path d="M16.1191 15.2875V16.9508" stroke="#408AEC" stroke-width="2" stroke-linecap="round" stroke-linejoin="round"/>
</g>
<defs>
<clipPath id="clip0_478_4987">
<rect width="19.96" height="19.96" fill="white" transform="translate(0.317383 0.317459)"/>
</clipPath>
</defs>
</svg>
