<svg width="20" height="20" viewBox="0 0 20 20" fill="none" xmlns="http://www.w3.org/2000/svg">
<g clip-path="url(#clip0_478_5915)">
<path d="M10.0003 13.3334C11.8413 13.3334 13.3337 11.841 13.3337 10.0001C13.3337 8.15913 11.8413 6.66675 10.0003 6.66675C8.15938 6.66675 6.66699 8.15913 6.66699 10.0001C6.66699 11.841 8.15938 13.3334 10.0003 13.3334Z" stroke="#F4B400" stroke-width="2" stroke-linecap="round" stroke-linejoin="round"/>
<path d="M13.3337 6.66676V10.8334C13.3337 11.4965 13.5971 12.1323 14.0659 12.6012C14.5347 13.07 15.1706 13.3334 15.8337 13.3334C16.4967 13.3334 17.1326 13.07 17.6014 12.6012C18.0703 12.1323 18.3337 11.4965 18.3337 10.8334V10.0001C18.3337 8.12284 17.6998 6.30059 16.5348 4.82856C15.3699 3.35654 13.742 2.32098 11.9149 1.88968C10.0879 1.45838 8.16878 1.65659 6.46847 2.45221C4.76817 3.24784 3.38631 4.59425 2.54678 6.27331C1.70725 7.95237 1.45923 9.86571 1.84292 11.7033C2.22661 13.5409 3.21951 15.1952 4.66077 16.398C6.10203 17.6009 7.9072 18.2818 9.78382 18.3306C11.6604 18.3794 13.4985 17.7931 15.0003 16.6668" stroke="#F4B400" stroke-width="2" stroke-linecap="round" stroke-linejoin="round"/>
</g>
<defs>
<clipPath id="clip0_478_5915">
<rect width="20" height="20" fill="white"/>
</clipPath>
</defs>
</svg>
