<svg width="39" height="39" viewBox="0 0 39 39" fill="none" xmlns="http://www.w3.org/2000/svg">
<path fill-rule="evenodd" clip-rule="evenodd" d="M3.33599 10.7569C4.14005 8.32941 5.18911 4.77991 6.48318 0.108398H38.8923L3.33599 27.2484L19.3483 9.01772C14.6539 9.0108 10.0877 9.00734 5.6499 9.00734C4.13007 9.24821 3.01722 11.5079 3.33599 10.7569Z" fill="#868786"/>
<path fill-rule="evenodd" clip-rule="evenodd" d="M36.8896 3.25586L0.607422 30.876L34.3131 30.6964C35.6951 25.1111 36.6134 21.1674 37.068 18.8653C37.068 17.8507 36.3049 21.3445 34.3131 21.6317C30.3124 21.7439 25.7833 21.7999 20.7259 21.7999L36.8896 3.25586Z" fill="#E3200F"/>
<path fill-rule="evenodd" clip-rule="evenodd" d="M2.66638 37.6775L5.8665 37.6864L5.64235 38.888H0.386719L0.55364 37.9979L4.55498 33.6232L1.34532 33.6143L1.57424 32.4082H6.81556L6.65341 33.276L2.66638 37.6775ZM11.1174 36.1421H8.56585L8.27493 37.6864H11.2938L11.0697 38.888H6.41972L7.62155 32.4082H12.281L12.0569 33.6143H9.03323L8.77569 34.9805H11.332L11.1174 36.1421ZM17.4031 38.888H15.8245L14.1649 34.7981L13.4018 38.888H11.7707L12.9726 32.4082H14.5655L16.2204 36.4981L16.9787 32.4082H18.6097L17.4031 38.888ZM20.2122 38.888H18.5811L19.7877 32.4082H21.414L20.2122 38.888ZM27.5138 33.6143H25.4916L24.514 38.888H22.8781L23.8606 33.6143H21.8718L22.1008 32.4082H27.7379L27.5138 33.6143ZM32.8934 38.888H31.2719L31.7726 36.1821H29.3928L28.8873 38.888H27.2562L28.4581 32.4082H30.0939L29.6122 34.9805H31.9968L32.4737 32.4082H34.1L32.8934 38.888Z" fill="#868786"/>
</svg>
